<?xml version="1.0" encoding="UTF-8"?>
<svg id="Layer_1" xmlns="http://www.w3.org/2000/svg" version="1.1" viewBox="0 0 1080 1080">
  <!-- Generator: Adobe Illustrator 29.1.0, SVG Export Plug-In . SVG Version: 2.1.0 Build 142)  -->
  <defs>
    <style>
      .st0 {
        fill: #0e2841;
      }

      .st1 {
        fill: #bc1a04;
      }
    </style>
  </defs>
  <polygon class="st0" points="843.11 113.53 539.97 414.07 317.69 193.7 236.89 113.58 236.89 113.53 75.23 113.53 75.23 179.56 75.23 279.45 75.23 505.73 75.23 960.18 236.89 960.18 236.89 665.99 236.89 439.7 236.89 339.81 317.69 419.94 539.97 640.3 843.11 339.76 1004.77 179.51 1004.77 113.53 843.11 113.53"/>
  <polygon class="st1" points="539.97 740.24 317.69 519.83 317.69 746.11 539.97 966.47 843.11 665.94 843.11 960.18 1004.77 960.18 1004.77 505.68 1004.77 279.45 843.11 439.7 539.97 740.24"/>
</svg>