<?xml version="1.0" encoding="UTF-8"?>
<svg id="Layer_1" xmlns="http://www.w3.org/2000/svg" version="1.1" viewBox="0 0 2000 420">
  <!-- Generator: Adobe Illustrator 29.1.0, SVG Export Plug-In . SVG Version: 2.1.0 Build 142)  -->
  <defs>
    <style>
      .st0 {
        fill: #0e2841;
      }

      .st1 {
        fill: #bc1a04;
      }

      .st2 {
        fill: #8c8c8c;
      }
    </style>
  </defs>
  <g>
    <polygon class="st0" points="319.09 67.67 222.21 163.72 151.17 93.3 125.34 67.69 125.34 67.67 73.68 67.67 73.68 88.78 73.68 120.7 73.68 193.02 73.68 338.26 125.34 338.26 125.34 244.24 125.34 171.92 125.34 139.99 151.17 165.6 222.21 236.03 319.09 139.98 370.76 88.76 370.76 67.67 319.09 67.67"/>
    <polygon class="st1" points="222.21 267.97 151.17 197.52 151.17 269.85 222.21 340.27 319.09 244.22 319.09 338.26 370.76 338.26 370.76 193 370.76 120.7 319.09 171.92 222.21 267.97"/>
  </g>
  <g>
    <g>
      <path class="st0" d="M520.16,185.76c.79,1.89,1.58,3.8,2.34,5.72.77-1.98,1.56-3.92,2.39-5.84s1.7-3.76,2.63-5.51l35.21-65.89c.44-.82.89-1.48,1.36-1.98.47-.49.99-.85,1.56-1.07.58-.22,1.22-.36,1.93-.41.71-.05,1.56-.08,2.55-.08h16.7v118.95h-19.5v-76.83c0-1.42.04-2.99.12-4.69.08-1.7.21-3.43.37-5.18l-35.95,67.45c-.82,1.54-1.89,2.73-3.21,3.58s-2.85,1.28-4.61,1.28h-3.04c-1.76,0-3.29-.43-4.61-1.28s-2.39-2.04-3.21-3.58l-36.44-67.7c.22,1.81.37,3.58.45,5.31.08,1.73.12,3.33.12,4.81v76.83h-19.5v-118.95h16.7c.99,0,1.84.03,2.55.08.71.06,1.36.19,1.93.41.57.22,1.11.58,1.6,1.07s.96,1.15,1.4,1.98l35.54,66.05c.93,1.76,1.79,3.58,2.59,5.47Z"/>
      <path class="st0" d="M675.01,229.65h-9.13c-1.92,0-3.43-.29-4.52-.86-1.1-.58-1.92-1.74-2.47-3.5l-1.81-6.01c-2.14,1.92-4.24,3.61-6.29,5.06-2.06,1.45-4.18,2.67-6.37,3.66-2.19.99-4.52,1.73-6.99,2.22-2.47.49-5.21.74-8.23.74-3.57,0-6.86-.48-9.87-1.44-3.02-.96-5.61-2.41-7.77-4.33-2.17-1.93-3.85-4.32-5.06-7.18-1.21-2.86-1.81-6.19-1.81-9.99,0-3.19.84-6.34,2.51-9.45,1.67-3.11,4.45-5.91,8.35-8.42,3.89-2.5,9.08-4.58,15.55-6.23,6.47-1.65,14.5-2.48,24.1-2.48v-4.97c0-5.69-1.19-9.91-3.58-12.64-2.39-2.73-5.85-4.1-10.41-4.1-3.29,0-6.03.38-8.23,1.15s-4.1,1.63-5.72,2.59c-1.62.96-3.11,1.82-4.48,2.59-1.37.77-2.88,1.15-4.52,1.15-1.37,0-2.55-.36-3.54-1.07-.99-.71-1.78-1.59-2.39-2.63l-3.7-6.5c9.71-8.88,21.41-13.33,35.13-13.33,4.94,0,9.34.81,13.2,2.43,3.87,1.62,7.14,3.87,9.83,6.75,2.69,2.88,4.73,6.32,6.13,10.32,1.4,4,2.1,8.39,2.1,13.16v53.3ZM635.53,216.98c2.08,0,4-.19,5.76-.57,1.75-.38,3.41-.94,4.98-1.7,1.56-.76,3.07-1.69,4.52-2.79s2.92-2.42,4.4-3.93v-14.13c-5.92,0-10.87.37-14.85,1.12-3.98.74-7.17,1.7-9.58,2.86-2.41,1.16-4.13,2.51-5.14,4.06-1.02,1.55-1.52,3.23-1.52,5.05,0,3.59,1.05,6.16,3.17,7.71,2.11,1.55,4.87,2.32,8.27,2.32Z"/>
      <path class="st0" d="M744.27,161.7c-.55.88-1.12,1.49-1.73,1.85-.6.36-1.37.54-2.3.54-.99,0-2.04-.27-3.17-.82-1.12-.55-2.43-1.17-3.91-1.85-1.48-.68-3.17-1.3-5.06-1.85-1.89-.55-4.13-.82-6.7-.82-4.01,0-7.16.85-9.46,2.55-2.3,1.7-3.45,3.92-3.45,6.66,0,1.81.59,3.33,1.77,4.57,1.18,1.23,2.74,2.32,4.69,3.25,1.95.93,4.15,1.77,6.62,2.51,2.47.74,4.99,1.55,7.57,2.43,2.58.88,5.1,1.88,7.57,3,2.47,1.12,4.67,2.55,6.62,4.28,1.95,1.73,3.51,3.8,4.69,6.21,1.18,2.41,1.77,5.32,1.77,8.72,0,4.06-.74,7.8-2.22,11.23-1.48,3.43-3.65,6.39-6.5,8.89s-6.37,4.44-10.57,5.84c-4.2,1.4-9.01,2.1-14.44,2.1-2.91,0-5.74-.26-8.51-.78-2.77-.52-5.43-1.25-7.98-2.18-2.55-.93-4.91-2.03-7.07-3.29-2.17-1.26-4.07-2.63-5.72-4.11l4.69-7.73c.6-.93,1.32-1.65,2.14-2.14s1.86-.74,3.13-.74,2.45.36,3.58,1.07c1.12.71,2.43,1.48,3.91,2.3,1.48.82,3.22,1.59,5.22,2.3,2,.71,4.54,1.07,7.61,1.07,2.41,0,4.48-.29,6.21-.86s3.15-1.33,4.28-2.26c1.12-.93,1.95-2.02,2.47-3.25.52-1.23.78-2.51.78-3.83,0-1.98-.59-3.59-1.77-4.85-1.18-1.26-2.74-2.36-4.69-3.29-1.95-.93-4.17-1.77-6.66-2.51-2.5-.74-5.05-1.55-7.65-2.43-2.6-.88-5.15-1.9-7.65-3.09-2.5-1.18-4.72-2.67-6.66-4.48-1.95-1.81-3.51-4.03-4.69-6.66s-1.77-5.81-1.77-9.54c0-3.45.68-6.74,2.06-9.87,1.37-3.13,3.39-5.85,6.05-8.19,2.66-2.33,5.98-4.2,9.95-5.59,3.97-1.4,8.57-2.1,13.78-2.1,5.81,0,11.11.96,15.88,2.88,4.77,1.92,8.75,4.44,11.93,7.57l-4.61,7.32Z"/>
      <path class="st0" d="M768.87,229.65v-69.1l-7.32-1.15c-1.59-.27-2.87-.82-3.83-1.64-.96-.82-1.44-1.98-1.44-3.46v-8.31h12.59v-6.25c0-4.82.73-9.16,2.18-13,1.45-3.84,3.54-7.1,6.25-9.79,2.71-2.69,6.02-4.74,9.91-6.17,3.89-1.42,8.28-2.14,13.16-2.14,3.89,0,7.51.52,10.86,1.56l-.41,10.2c-.11,1.59-.85,2.58-2.22,2.96-1.37.38-2.96.58-4.77.58-2.41,0-4.57.26-6.46.78-1.89.52-3.5,1.43-4.81,2.72-1.32,1.29-2.32,2.99-3,5.1-.69,2.11-1.03,4.73-1.03,7.86v5.59h21.96v14.48h-21.3v69.18h-20.32Z"/>
      <path class="st0" d="M856.97,143.93c5.32,0,10.21.85,14.68,2.55,4.47,1.7,8.32,4.18,11.56,7.45,3.23,3.26,5.76,7.27,7.57,12.01,1.81,4.74,2.72,10.16,2.72,16.25,0,1.54-.07,2.81-.21,3.83-.14,1.02-.38,1.81-.74,2.39-.36.58-.84.99-1.44,1.23-.6.25-1.37.37-2.3.37h-52.15c.6,8.67,2.93,15.03,6.99,19.08,4.06,4.06,9.43,6.09,16.12,6.09,3.29,0,6.13-.38,8.51-1.15,2.39-.77,4.47-1.62,6.25-2.55,1.78-.93,3.34-1.78,4.69-2.55,1.34-.77,2.65-1.15,3.91-1.15.82,0,1.54.16,2.14.49s1.12.8,1.56,1.4l5.92,7.4c-2.25,2.63-4.77,4.84-7.57,6.62-2.8,1.78-5.72,3.21-8.76,4.28-3.04,1.07-6.14,1.82-9.3,2.26-3.15.44-6.21.66-9.17.66-5.87,0-11.33-.97-16.37-2.92-5.05-1.95-9.43-4.82-13.16-8.64-3.73-3.81-6.66-8.53-8.8-14.15-2.14-5.62-3.21-12.13-3.21-19.54,0-5.76.93-11.17,2.8-16.25,1.86-5.07,4.54-9.49,8.02-13.24,3.48-3.76,7.73-6.73,12.75-8.92s10.68-3.29,16.99-3.29ZM857.38,158.49c-5.92,0-10.56,1.67-13.9,5.02-3.35,3.34-5.49,8.09-6.42,14.23h38.17c0-2.63-.36-5.11-1.07-7.44s-1.81-4.37-3.29-6.13c-1.48-1.75-3.35-3.14-5.59-4.15-2.25-1.01-4.88-1.52-7.9-1.52Z"/>
      <path class="st0" d="M909.2,229.65v-84.4h11.93c2.08,0,3.54.38,4.36,1.15s1.37,2.08,1.65,3.95l1.23,10.2c3.02-5.21,6.55-9.32,10.61-12.34,4.06-3.02,8.61-4.52,13.65-4.52,4.17,0,7.62.96,10.37,2.88l-2.63,15.22c-.17.99-.52,1.69-1.07,2.1-.55.41-1.29.62-2.22.62-.82,0-1.95-.19-3.37-.58-1.43-.38-3.32-.58-5.68-.58-4.22,0-7.84,1.17-10.86,3.5-3.02,2.33-5.57,5.74-7.65,10.24v52.56h-20.32Z"/>
      <path class="st0" d="M975.58,229.65v-84.4h11.93c2.08,0,3.54.38,4.36,1.15s1.37,2.08,1.65,3.95l1.23,10.2c3.02-5.21,6.55-9.32,10.61-12.34,4.06-3.02,8.61-4.52,13.65-4.52,4.17,0,7.62.96,10.37,2.88l-2.63,15.22c-.17.99-.52,1.69-1.07,2.1-.55.41-1.29.62-2.22.62-.82,0-1.95-.19-3.37-.58-1.43-.38-3.32-.58-5.68-.58-4.22,0-7.84,1.17-10.86,3.5-3.02,2.33-5.57,5.74-7.65,10.24v52.56h-20.32Z"/>
      <path class="st0" d="M1076.84,143.93c5.32,0,10.21.85,14.68,2.55,4.47,1.7,8.32,4.18,11.56,7.45,3.23,3.26,5.76,7.27,7.57,12.01,1.81,4.74,2.72,10.16,2.72,16.25,0,1.54-.07,2.81-.21,3.83-.14,1.02-.38,1.81-.74,2.39-.36.58-.84.99-1.44,1.23-.6.25-1.37.37-2.3.37h-52.15c.6,8.67,2.93,15.03,6.99,19.08,4.06,4.06,9.43,6.09,16.12,6.09,3.29,0,6.13-.38,8.51-1.15,2.39-.77,4.47-1.62,6.25-2.55,1.78-.93,3.34-1.78,4.69-2.55,1.34-.77,2.65-1.15,3.91-1.15.82,0,1.54.16,2.14.49s1.12.8,1.56,1.4l5.92,7.4c-2.25,2.63-4.77,4.84-7.57,6.62-2.8,1.78-5.72,3.21-8.76,4.28-3.04,1.07-6.14,1.82-9.3,2.26-3.15.44-6.21.66-9.17.66-5.87,0-11.33-.97-16.37-2.92-5.05-1.95-9.43-4.82-13.16-8.64-3.73-3.81-6.66-8.53-8.8-14.15-2.14-5.62-3.21-12.13-3.21-19.54,0-5.76.93-11.17,2.8-16.25,1.86-5.07,4.54-9.49,8.02-13.24,3.48-3.76,7.73-6.73,12.75-8.92s10.68-3.29,16.99-3.29ZM1077.25,158.49c-5.92,0-10.56,1.67-13.9,5.02-3.35,3.34-5.49,8.09-6.42,14.23h38.17c0-2.63-.36-5.11-1.07-7.44s-1.81-4.37-3.29-6.13c-1.48-1.75-3.35-3.14-5.59-4.15-2.25-1.01-4.88-1.52-7.9-1.52Z"/>
      <path class="st0" d="M1129.07,229.65v-84.4h11.93c2.08,0,3.54.38,4.36,1.15s1.37,2.08,1.65,3.95l1.23,10.2c3.02-5.21,6.55-9.32,10.61-12.34,4.06-3.02,8.61-4.52,13.65-4.52,4.17,0,7.62.96,10.37,2.88l-2.63,15.22c-.17.99-.52,1.69-1.07,2.1-.55.41-1.29.62-2.22.62-.82,0-1.95-.19-3.37-.58-1.43-.38-3.32-.58-5.68-.58-4.22,0-7.84,1.17-10.86,3.5-3.02,2.33-5.57,5.74-7.65,10.24v52.56h-20.32Z"/>
      <path class="st1" d="M1239.14,109.38c4.82,0,9.14.74,12.96,2.22,3.81,1.48,7.07,3.46,9.79,5.92,2.72,2.47,4.85,5.29,6.42,8.47,1.56,3.18,2.48,6.47,2.76,9.87l-12.91,2.71c-.16.06-.34.08-.53.08h-.54c-.93,0-1.77-.26-2.51-.78s-1.33-1.33-1.77-2.43c-.49-1.42-1.12-2.78-1.89-4.07-.77-1.29-1.7-2.41-2.8-3.37-1.1-.96-2.39-1.73-3.87-2.3-1.48-.58-3.18-.86-5.1-.86-2.3,0-4.36.4-6.17,1.19-1.81.8-3.35,1.87-4.61,3.21-1.26,1.35-2.22,2.91-2.88,4.69-.66,1.78-.99,3.66-.99,5.63,0,1.64.18,3.24.53,4.77.36,1.54.92,3.07,1.69,4.61.77,1.54,1.77,3.11,3,4.73,1.23,1.62,2.76,3.36,4.57,5.22l31.59,32.82c1.81-3.46,3.26-7.1,4.36-10.94,1.1-3.84,1.81-7.73,2.14-11.68.11-1.26.52-2.28,1.23-3.04.71-.77,1.7-1.15,2.96-1.15h12.75c-.06,7.24-1.1,14.15-3.13,20.73-2.03,6.58-4.94,12.64-8.72,18.18l24.92,25.83h-19.91c-1.04,0-1.96-.05-2.76-.16-.8-.11-1.55-.31-2.26-.62-.71-.3-1.4-.7-2.06-1.19-.66-.49-1.35-1.12-2.06-1.89l-8.22-8.47c-5.26,4.28-11.12,7.62-17.56,10.04-6.44,2.41-13.42,3.62-20.93,3.62-4.61,0-9.1-.78-13.49-2.35-4.39-1.56-8.31-3.83-11.76-6.79-3.46-2.96-6.24-6.54-8.35-10.74-2.11-4.2-3.17-8.93-3.17-14.19,0-3.67.6-7.17,1.81-10.49,1.21-3.32,2.88-6.4,5.02-9.25,2.14-2.85,4.68-5.43,7.61-7.73,2.93-2.3,6.16-4.28,9.67-5.92-2.91-4.11-5.03-8.13-6.38-12.05s-2.02-7.83-2.02-11.72c0-4.11.75-8.02,2.26-11.72,1.51-3.7,3.7-6.92,6.58-9.67,2.88-2.74,6.4-4.92,10.57-6.54,4.17-1.62,8.88-2.43,14.15-2.43ZM1210.51,195.26c0,3.02.52,5.73,1.56,8.15,1.04,2.41,2.47,4.45,4.28,6.13,1.81,1.67,3.91,2.96,6.29,3.87,2.39.91,4.92,1.36,7.61,1.36,4.82,0,9.23-.75,13.2-2.26s7.61-3.61,10.9-6.29l-31.26-32.08c-4.39,2.85-7.58,6.06-9.58,9.62-2,3.57-3,7.4-3,11.52Z"/>
      <path class="st0" d="M1336.12,187.78v41.87h-22.13v-118.95h38.74c7.95,0,14.83.93,20.65,2.8s10.61,4.47,14.4,7.81c3.78,3.34,6.58,7.35,8.39,12.01,1.81,4.66,2.72,9.76,2.72,15.3s-.96,11.04-2.88,15.84c-1.92,4.8-4.8,8.92-8.64,12.38-3.84,3.46-8.64,6.14-14.39,8.06-5.76,1.92-12.5,2.88-20.24,2.88h-16.62ZM1336.12,170.5h16.62c4.06,0,7.59-.51,10.61-1.52,3.02-1.01,5.51-2.47,7.49-4.36,1.98-1.89,3.46-4.2,4.44-6.91.99-2.71,1.48-5.74,1.48-9.09s-.49-6.06-1.48-8.64c-.99-2.58-2.47-4.77-4.44-6.58-1.97-1.81-4.47-3.19-7.49-4.15-3.02-.96-6.55-1.44-10.61-1.44h-16.62v42.69Z"/>
      <path class="st0" d="M1476.13,229.65h-9.13c-1.92,0-3.43-.29-4.52-.86-1.1-.58-1.92-1.74-2.47-3.5l-1.81-6.01c-2.14,1.92-4.24,3.61-6.29,5.06-2.06,1.45-4.18,2.67-6.37,3.66-2.19.99-4.52,1.73-6.99,2.22-2.47.49-5.21.74-8.23.74-3.57,0-6.86-.48-9.87-1.44-3.02-.96-5.61-2.41-7.77-4.33-2.17-1.93-3.85-4.32-5.06-7.18-1.21-2.86-1.81-6.19-1.81-9.99,0-3.19.84-6.34,2.51-9.45,1.67-3.11,4.45-5.91,8.35-8.42,3.89-2.5,9.08-4.58,15.55-6.23,6.47-1.65,14.5-2.48,24.1-2.48v-4.97c0-5.69-1.19-9.91-3.58-12.64-2.39-2.73-5.85-4.1-10.41-4.1-3.29,0-6.03.38-8.23,1.15s-4.1,1.63-5.72,2.59c-1.62.96-3.11,1.82-4.48,2.59-1.37.77-2.88,1.15-4.52,1.15-1.37,0-2.55-.36-3.54-1.07-.99-.71-1.78-1.59-2.39-2.63l-3.7-6.5c9.71-8.88,21.41-13.33,35.13-13.33,4.94,0,9.34.81,13.2,2.43,3.87,1.62,7.14,3.87,9.83,6.75,2.69,2.88,4.73,6.32,6.13,10.32,1.4,4,2.1,8.39,2.1,13.16v53.3ZM1436.64,216.98c2.08,0,4-.19,5.76-.57,1.75-.38,3.41-.94,4.98-1.7,1.56-.76,3.07-1.69,4.52-2.79s2.92-2.42,4.4-3.93v-14.13c-5.92,0-10.87.37-14.85,1.12-3.98.74-7.17,1.7-9.58,2.86-2.41,1.16-4.13,2.51-5.14,4.06-1.02,1.55-1.52,3.23-1.52,5.05,0,3.59,1.05,6.16,3.17,7.71,2.11,1.55,4.87,2.32,8.27,2.32Z"/>
      <path class="st0" d="M1495.29,229.65v-84.4h11.93c2.08,0,3.54.38,4.36,1.15s1.37,2.08,1.65,3.95l1.23,10.2c3.02-5.21,6.55-9.32,10.61-12.34,4.06-3.02,8.61-4.52,13.65-4.52,4.17,0,7.62.96,10.37,2.88l-2.63,15.22c-.17.99-.52,1.69-1.07,2.1-.55.41-1.29.62-2.22.62-.82,0-1.95-.19-3.37-.58-1.43-.38-3.32-.58-5.68-.58-4.22,0-7.84,1.17-10.86,3.5-3.02,2.33-5.57,5.74-7.65,10.24v52.56h-20.32Z"/>
      <path class="st0" d="M1589.4,230.96c-7.29,0-12.91-2.07-16.86-6.21-3.95-4.14-5.92-9.86-5.92-17.15v-47.14h-8.55c-1.1,0-2.04-.36-2.84-1.07-.8-.71-1.19-1.78-1.19-3.21v-8.06l13.57-2.22,4.28-23.03c.22-1.1.73-1.95,1.52-2.55.79-.6,1.79-.91,3-.91h10.53v26.57h22.21v14.48h-22.21v45.74c0,2.63.66,4.69,1.98,6.17,1.32,1.48,3.07,2.22,5.26,2.22,1.26,0,2.32-.15,3.17-.45.85-.3,1.59-.62,2.22-.95.63-.33,1.19-.64,1.69-.95.49-.3.99-.45,1.48-.45.6,0,1.1.15,1.48.45.38.3.79.75,1.23,1.36l6.09,9.87c-2.96,2.47-6.36,4.33-10.2,5.59s-7.81,1.89-11.93,1.89Z"/>
      <path class="st0" d="M1624.52,229.65v-84.4h12.42c2.63,0,4.36,1.23,5.18,3.7l1.4,6.66c1.7-1.75,3.5-3.34,5.39-4.77,1.89-1.42,3.89-2.66,6-3.7,2.11-1.04,4.37-1.84,6.79-2.39,2.41-.55,5.04-.82,7.9-.82,4.61,0,8.69.78,12.26,2.35,3.57,1.56,6.54,3.76,8.93,6.58,2.39,2.83,4.2,6.2,5.43,10.12,1.23,3.92,1.85,8.24,1.85,12.96v53.71h-20.32v-53.71c0-5.15-1.19-9.14-3.58-11.97-2.39-2.82-5.96-4.24-10.74-4.24-3.51,0-6.8.8-9.87,2.39-3.07,1.59-5.98,3.76-8.72,6.5v61.04h-20.32Z"/>
      <path class="st0" d="M1752.1,143.93c5.32,0,10.21.85,14.68,2.55,4.47,1.7,8.32,4.18,11.56,7.45,3.23,3.26,5.76,7.27,7.57,12.01,1.81,4.74,2.72,10.16,2.72,16.25,0,1.54-.07,2.81-.21,3.83-.14,1.02-.38,1.81-.74,2.39-.36.58-.84.99-1.44,1.23-.6.25-1.37.37-2.3.37h-52.15c.6,8.67,2.93,15.03,6.99,19.08,4.06,4.06,9.43,6.09,16.12,6.09,3.29,0,6.13-.38,8.51-1.15,2.39-.77,4.47-1.62,6.25-2.55,1.78-.93,3.34-1.78,4.69-2.55,1.34-.77,2.65-1.15,3.91-1.15.82,0,1.54.16,2.14.49s1.12.8,1.56,1.4l5.92,7.4c-2.25,2.63-4.77,4.84-7.57,6.62-2.8,1.78-5.72,3.21-8.76,4.28-3.04,1.07-6.14,1.82-9.3,2.26-3.15.44-6.21.66-9.17.66-5.87,0-11.33-.97-16.37-2.92-5.05-1.95-9.43-4.82-13.16-8.64-3.73-3.81-6.66-8.53-8.8-14.15-2.14-5.62-3.21-12.13-3.21-19.54,0-5.76.93-11.17,2.8-16.25,1.86-5.07,4.54-9.49,8.02-13.24,3.48-3.76,7.73-6.73,12.75-8.92s10.68-3.29,16.99-3.29ZM1752.51,158.49c-5.92,0-10.56,1.67-13.9,5.02-3.35,3.34-5.49,8.09-6.42,14.23h38.17c0-2.63-.36-5.11-1.07-7.44s-1.81-4.37-3.29-6.13c-1.48-1.75-3.35-3.14-5.59-4.15-2.25-1.01-4.88-1.52-7.9-1.52Z"/>
      <path class="st0" d="M1804.34,229.65v-84.4h11.93c2.08,0,3.54.38,4.36,1.15s1.37,2.08,1.65,3.95l1.23,10.2c3.02-5.21,6.55-9.32,10.61-12.34,4.06-3.02,8.61-4.52,13.65-4.52,4.17,0,7.62.96,10.37,2.88l-2.63,15.22c-.17.99-.52,1.69-1.07,2.1-.55.41-1.29.62-2.22.62-.82,0-1.95-.19-3.37-.58-1.43-.38-3.32-.58-5.68-.58-4.22,0-7.84,1.17-10.86,3.5-3.02,2.33-5.57,5.74-7.65,10.24v52.56h-20.32Z"/>
      <path class="st0" d="M1920.81,161.7c-.55.88-1.12,1.49-1.73,1.85-.6.36-1.37.54-2.3.54-.99,0-2.04-.27-3.17-.82-1.12-.55-2.43-1.17-3.91-1.85-1.48-.68-3.17-1.3-5.06-1.85-1.89-.55-4.13-.82-6.7-.82-4.01,0-7.16.85-9.46,2.55-2.3,1.7-3.45,3.92-3.45,6.66,0,1.81.59,3.33,1.77,4.57,1.18,1.23,2.74,2.32,4.69,3.25,1.95.93,4.15,1.77,6.62,2.51,2.47.74,4.99,1.55,7.57,2.43,2.58.88,5.1,1.88,7.57,3,2.47,1.12,4.67,2.55,6.62,4.28,1.95,1.73,3.51,3.8,4.69,6.21,1.18,2.41,1.77,5.32,1.77,8.72,0,4.06-.74,7.8-2.22,11.23-1.48,3.43-3.65,6.39-6.5,8.89s-6.37,4.44-10.57,5.84c-4.2,1.4-9.01,2.1-14.44,2.1-2.91,0-5.74-.26-8.51-.78-2.77-.52-5.43-1.25-7.98-2.18-2.55-.93-4.91-2.03-7.07-3.29-2.17-1.26-4.07-2.63-5.72-4.11l4.69-7.73c.6-.93,1.32-1.65,2.14-2.14s1.86-.74,3.13-.74,2.45.36,3.58,1.07c1.12.71,2.43,1.48,3.91,2.3,1.48.82,3.22,1.59,5.22,2.3,2,.71,4.54,1.07,7.61,1.07,2.41,0,4.48-.29,6.21-.86s3.15-1.33,4.28-2.26c1.12-.93,1.95-2.02,2.47-3.25.52-1.23.78-2.51.78-3.83,0-1.98-.59-3.59-1.77-4.85-1.18-1.26-2.74-2.36-4.69-3.29-1.95-.93-4.17-1.77-6.66-2.51-2.5-.74-5.05-1.55-7.65-2.43-2.6-.88-5.15-1.9-7.65-3.09-2.5-1.18-4.72-2.67-6.66-4.48-1.95-1.81-3.51-4.03-4.69-6.66-1.18-2.63-1.77-5.81-1.77-9.54,0-3.45.68-6.74,2.06-9.87,1.37-3.13,3.39-5.85,6.05-8.19,2.66-2.33,5.98-4.2,9.95-5.59,3.97-1.4,8.57-2.1,13.78-2.1,5.81,0,11.11.96,15.88,2.88,4.77,1.92,8.75,4.44,11.93,7.57l-4.61,7.32Z"/>
    </g>
    <g>
      <path class="st2" d="M532.89,330.57c.24,0,.44.08.61.25l1.43,1.54c-1.05,1.12-2.19,2.13-3.43,3.02-1.24.89-2.59,1.66-4.06,2.29-1.46.63-3.07,1.12-4.82,1.47s-3.67.52-5.77.52c-3.5,0-6.71-.61-9.63-1.84-2.92-1.23-5.42-2.96-7.5-5.22-2.09-2.25-3.71-4.97-4.88-8.16-1.17-3.19-1.75-6.74-1.75-10.65s.6-7.34,1.8-10.5c1.2-3.17,2.89-5.89,5.07-8.16,2.18-2.27,4.79-4.04,7.83-5.29,3.04-1.25,6.39-1.88,10.06-1.88,1.83,0,3.51.14,5.04.41,1.52.27,2.95.67,4.27,1.18,1.32.51,2.57,1.15,3.73,1.91s2.31,1.64,3.43,2.64l-1.11,1.61c-.19.29-.49.43-.89.43-.22,0-.49-.12-.82-.37-.33-.25-.76-.56-1.27-.93-.51-.37-1.13-.77-1.86-1.21-.73-.44-1.59-.85-2.59-1.22-1-.37-2.16-.68-3.47-.93s-2.8-.37-4.47-.37c-3.07,0-5.9.53-8.47,1.59s-4.79,2.57-6.65,4.54-3.3,4.35-4.34,7.15c-1.04,2.8-1.55,5.94-1.55,9.42s.51,6.76,1.54,9.57,2.44,5.19,4.25,7.13c1.81,1.94,3.95,3.43,6.41,4.47,2.47,1.04,5.14,1.55,8.02,1.55,1.81,0,3.42-.12,4.84-.36,1.42-.24,2.72-.6,3.91-1.07,1.19-.48,2.3-1.06,3.32-1.75,1.02-.69,2.04-1.5,3.04-2.43.12-.09.23-.17.34-.23.11-.06.23-.09.37-.09Z"/>
      <path class="st2" d="M559.68,302.95c2.55,0,4.83.43,6.84,1.3,2.01.87,3.71,2.1,5.09,3.7,1.38,1.6,2.44,3.52,3.16,5.77.73,2.25,1.09,4.77,1.09,7.56s-.36,5.3-1.09,7.54c-.73,2.24-1.78,4.16-3.16,5.75s-3.08,2.82-5.09,3.68c-2.01.86-4.29,1.29-6.84,1.29s-4.83-.43-6.84-1.29c-2.01-.86-3.72-2.09-5.11-3.68-1.39-1.6-2.45-3.51-3.18-5.75-.73-2.24-1.09-4.75-1.09-7.54s.36-5.31,1.09-7.56c.73-2.25,1.79-4.17,3.18-5.77,1.39-1.6,3.1-2.83,5.11-3.7,2.01-.87,4.29-1.3,6.84-1.3ZM559.68,336.86c2.12,0,3.97-.36,5.56-1.09,1.58-.73,2.91-1.77,3.97-3.13,1.06-1.36,1.85-2.99,2.38-4.91.52-1.92.79-4.07.79-6.45s-.26-4.5-.79-6.43-1.32-3.58-2.38-4.95-2.38-2.42-3.97-3.16-3.44-1.11-5.56-1.11-3.97.37-5.56,1.11-2.91,1.79-3.97,3.16-1.86,3.02-2.39,4.95c-.54,1.93-.8,4.07-.8,6.43s.27,4.53.8,6.45c.54,1.92,1.33,3.56,2.39,4.91,1.06,1.36,2.38,2.4,3.97,3.13,1.58.73,3.44,1.09,5.56,1.09Z"/>
      <path class="st2" d="M586.23,339.07v-35.55h1.86c.62,0,.98.3,1.07.89l.32,5.36c1.62-2.05,3.51-3.7,5.66-4.95,2.16-1.25,4.56-1.88,7.2-1.88,1.95,0,3.67.31,5.16.93,1.49.62,2.72,1.51,3.7,2.68.98,1.17,1.72,2.57,2.22,4.22.5,1.64.75,3.5.75,5.57v22.72h-3.39v-22.72c0-3.33-.76-5.95-2.29-7.84-1.53-1.89-3.86-2.84-7-2.84-2.33,0-4.5.6-6.5,1.8-2,1.2-3.79,2.85-5.36,4.95v26.65h-3.39Z"/>
      <path class="st2" d="M645.89,307.95c-.17.33-.43.5-.79.5-.26,0-.6-.15-1.02-.45-.42-.3-.97-.63-1.64-1-.68-.37-1.51-.7-2.5-1-.99-.3-2.2-.45-3.63-.45-1.29,0-2.46.19-3.52.55s-1.96.86-2.72,1.48c-.75.62-1.33,1.34-1.75,2.16-.42.82-.62,1.68-.62,2.58,0,1.12.29,2.04.86,2.78.57.74,1.32,1.36,2.25,1.89.93.52,1.98.97,3.16,1.36,1.18.38,2.39.76,3.63,1.14,1.24.38,2.45.8,3.63,1.27,1.18.46,2.23,1.04,3.16,1.73.93.69,1.68,1.54,2.25,2.54.57,1,.86,2.22.86,3.64,0,1.55-.28,2.99-.84,4.32-.56,1.33-1.37,2.49-2.43,3.47-1.06.98-2.36,1.75-3.91,2.32s-3.31.86-5.29.86c-2.5,0-4.66-.4-6.47-1.2-1.81-.8-3.43-1.84-4.86-3.13l.82-1.21c.12-.19.25-.33.39-.43.14-.1.35-.14.61-.14.31,0,.69.19,1.14.57.45.38,1.04.79,1.77,1.23.73.44,1.63.85,2.72,1.23,1.08.38,2.42.57,4.02.57,1.5,0,2.82-.21,3.96-.62,1.14-.42,2.1-.98,2.86-1.7.76-.71,1.34-1.55,1.73-2.52.39-.96.59-1.98.59-3.05,0-1.19-.29-2.18-.86-2.97-.57-.79-1.32-1.45-2.25-2-.93-.55-1.98-1.01-3.16-1.39-1.18-.38-2.39-.76-3.64-1.14-1.25-.38-2.47-.8-3.64-1.25-1.18-.45-2.23-1.02-3.16-1.72-.93-.69-1.68-1.53-2.25-2.52s-.86-2.22-.86-3.7c0-1.26.27-2.48.82-3.64.55-1.17,1.33-2.19,2.34-3.07s2.24-1.58,3.7-2.11c1.45-.52,3.08-.79,4.89-.79,2.17,0,4.09.31,5.77.94,1.68.63,3.22,1.59,4.63,2.88l-.75,1.18Z"/>
      <path class="st2" d="M660.97,303.52v22.72c0,3.33.76,5.95,2.29,7.84,1.53,1.89,3.86,2.84,6.99,2.84,2.32,0,4.48-.59,6.49-1.77,2.01-1.18,3.81-2.82,5.41-4.91v-26.73h3.4v35.55h-1.87c-.66,0-1-.31-1.02-.93l-.32-5.29c-1.65,2.05-3.55,3.69-5.71,4.93-2.16,1.24-4.56,1.86-7.21,1.86-1.98,0-3.71-.31-5.19-.93-1.48-.62-2.71-1.51-3.69-2.68s-1.72-2.57-2.22-4.22c-.5-1.64-.75-3.5-.75-5.57v-22.72h3.4Z"/>
      <path class="st2" d="M702.95,287.09v51.98h-3.4v-51.98h3.4Z"/>
      <path class="st2" d="M726.64,339.65c-2.41,0-4.28-.67-5.61-2-1.33-1.33-2-3.39-2-6.18v-24.3h-5.11c-.26,0-.48-.07-.64-.21-.17-.14-.25-.35-.25-.61v-1.32l6.07-.43.85-12.72c.02-.21.11-.41.26-.57.15-.17.36-.25.62-.25h1.59v13.58h11.18v2.54h-11.18v24.12c0,.98.12,1.82.37,2.52s.6,1.28,1.04,1.73c.44.45.96.79,1.55,1s1.24.32,1.93.32c.86,0,1.6-.12,2.22-.37s1.16-.52,1.61-.82c.45-.3.82-.57,1.11-.82.29-.25.51-.37.68-.37.19,0,.38.12.57.36l.93,1.5c-.91,1-2.05,1.8-3.45,2.41-1.39.61-2.84.91-4.34.91Z"/>
      <path class="st2" d="M757.4,302.95c2.55,0,4.83.43,6.84,1.3,2.01.87,3.71,2.1,5.09,3.7,1.38,1.6,2.44,3.52,3.16,5.77.73,2.25,1.09,4.77,1.09,7.56s-.36,5.3-1.09,7.54c-.73,2.24-1.78,4.16-3.16,5.75s-3.08,2.82-5.09,3.68c-2.01.86-4.29,1.29-6.84,1.29s-4.83-.43-6.84-1.29c-2.01-.86-3.72-2.09-5.11-3.68-1.39-1.6-2.45-3.51-3.18-5.75-.73-2.24-1.09-4.75-1.09-7.54s.36-5.31,1.09-7.56c.73-2.25,1.79-4.17,3.18-5.77,1.39-1.6,3.1-2.83,5.11-3.7,2.01-.87,4.29-1.3,6.84-1.3ZM757.4,336.86c2.12,0,3.97-.36,5.56-1.09,1.58-.73,2.91-1.77,3.97-3.13,1.06-1.36,1.85-2.99,2.38-4.91.52-1.92.79-4.07.79-6.45s-.26-4.5-.79-6.43-1.32-3.58-2.38-4.95-2.38-2.42-3.97-3.16-3.44-1.11-5.56-1.11-3.97.37-5.56,1.11-2.91,1.79-3.97,3.16-1.86,3.02-2.39,4.95c-.54,1.93-.8,4.07-.8,6.43s.27,4.53.8,6.45c.54,1.92,1.33,3.56,2.39,4.91,1.06,1.36,2.38,2.4,3.97,3.13,1.58.73,3.44,1.09,5.56,1.09Z"/>
      <path class="st2" d="M783.94,339.07v-35.55h1.79c.41,0,.7.08.88.25.18.17.28.45.3.86l.29,7.5c1.14-2.88,2.67-5.14,4.57-6.77s4.25-2.45,7.04-2.45c1.07,0,2.06.11,2.97.34.9.23,1.76.55,2.57.98l-.46,2.36c-.07.38-.31.57-.72.57-.14,0-.35-.05-.61-.14-.26-.1-.59-.2-.98-.32-.39-.12-.87-.23-1.45-.32-.57-.09-1.23-.14-1.97-.14-2.69,0-4.9.83-6.63,2.5-1.73,1.67-3.13,4.07-4.2,7.22v23.12h-3.39Z"/>
      <path class="st2" d="M824.57,287.95l-7.72,9.04c-.19.24-.39.4-.59.48-.2.08-.45.12-.73.12h-2.04l5.61-8.5c.26-.43.54-.73.82-.89.29-.17.72-.25,1.29-.25h3.36ZM818.14,303.52v35.55h-3.4v-35.55h3.4Z"/>
      <path class="st2" d="M854.83,339.07c-.72,0-1.16-.33-1.32-1l-.5-4.54c-.98.95-1.95,1.81-2.91,2.57-.97.76-1.97,1.41-3.02,1.93s-2.18.92-3.39,1.2c-1.22.27-2.55.41-4,.41-1.22,0-2.39-.18-3.54-.54-1.14-.36-2.16-.91-3.04-1.64-.88-.74-1.59-1.68-2.13-2.84s-.8-2.54-.8-4.16c0-1.5.43-2.89,1.29-4.18.86-1.29,2.2-2.41,4.02-3.36s4.17-1.72,7.04-2.29c2.87-.57,6.32-.91,10.34-1v-3.71c0-3.29-.71-5.82-2.13-7.59-1.42-1.77-3.52-2.66-6.31-2.66-1.72,0-3.17.24-4.38.71-1.2.48-2.22,1-3.05,1.57-.83.57-1.51,1.1-2.04,1.57s-.97.71-1.32.71c-.48,0-.83-.21-1.07-.64l-.61-1.04c1.86-1.86,3.81-3.26,5.86-4.22,2.05-.95,4.37-1.43,6.97-1.43,1.91,0,3.57.3,5,.91,1.43.61,2.61,1.48,3.56,2.61.94,1.13,1.65,2.5,2.13,4.11.48,1.61.71,3.4.71,5.38v23.15h-1.36ZM840.54,337.18c1.38,0,2.65-.15,3.81-.45,1.16-.3,2.23-.71,3.21-1.25.99-.54,1.91-1.17,2.77-1.91.86-.74,1.7-1.54,2.54-2.4v-9.25c-3.38.1-6.3.35-8.74.77-2.44.42-4.45.98-6.04,1.7-1.58.72-2.75,1.57-3.5,2.56-.75.99-1.13,2.11-1.13,3.38,0,1.19.2,2.22.59,3.09.39.87.91,1.59,1.55,2.14.64.56,1.39.97,2.25,1.23.86.26,1.75.39,2.68.39Z"/>
      <path class="st2" d="M891.31,350.51c-.14.33-.33.61-.55.82-.23.22-.55.32-.98.32h-2.43l6.25-13.9-15.04-34.23h2.82c.36,0,.64.09.84.27s.35.37.45.59l11.97,27.66c.14.36.27.72.37,1.09.11.37.21.74.3,1.13.12-.38.24-.76.37-1.13.13-.37.27-.73.41-1.09l11.83-27.66c.12-.26.29-.47.5-.62.21-.15.45-.23.71-.23h2.61l-20.44,46.98Z"/>
      <path class="st2" d="M958.4,308.28c-.12.12-.23.22-.34.3-.11.08-.26.12-.45.12-.24,0-.57-.16-.98-.48s-.97-.67-1.66-1.05c-.69-.38-1.55-.73-2.59-1.05-1.04-.32-2.29-.48-3.77-.48-2.05,0-3.87.36-5.45,1.09-1.58.73-2.92,1.77-4,3.13s-1.91,3-2.48,4.93c-.57,1.93-.86,4.1-.86,6.5s.29,4.72.87,6.65c.58,1.93,1.41,3.56,2.48,4.88,1.07,1.32,2.37,2.33,3.89,3.02,1.52.69,3.22,1.04,5.07,1.04,1.72,0,3.15-.2,4.31-.61,1.16-.41,2.11-.85,2.86-1.32.75-.48,1.35-.92,1.79-1.32.44-.41.79-.61,1.05-.61.31,0,.55.12.71.36l.93,1.14c-.55.71-1.24,1.38-2.07,2-.83.62-1.78,1.16-2.82,1.61-1.05.45-2.19.8-3.41,1.05s-2.51.37-3.84.37c-2.26,0-4.33-.41-6.2-1.23-1.87-.82-3.48-2.01-4.82-3.57-1.35-1.56-2.39-3.47-3.14-5.74-.75-2.26-1.13-4.83-1.13-7.72,0-2.72.36-5.19,1.07-7.43.71-2.24,1.76-4.17,3.13-5.79s3.05-2.88,5.04-3.77c1.99-.89,4.27-1.34,6.84-1.34,2.31,0,4.36.37,6.16,1.11,1.8.74,3.36,1.74,4.7,3l-.89,1.21Z"/>
      <path class="st2" d="M982.49,302.95c2.55,0,4.83.43,6.84,1.3,2.01.87,3.71,2.1,5.09,3.7,1.38,1.6,2.44,3.52,3.16,5.77.73,2.25,1.09,4.77,1.09,7.56s-.36,5.3-1.09,7.54c-.73,2.24-1.78,4.16-3.16,5.75s-3.08,2.82-5.09,3.68c-2.01.86-4.29,1.29-6.84,1.29s-4.83-.43-6.84-1.29c-2.01-.86-3.72-2.09-5.11-3.68-1.39-1.6-2.45-3.51-3.18-5.75-.73-2.24-1.09-4.75-1.09-7.54s.36-5.31,1.09-7.56c.73-2.25,1.79-4.17,3.18-5.77,1.39-1.6,3.1-2.83,5.11-3.7,2.01-.87,4.29-1.3,6.84-1.3ZM982.49,336.86c2.12,0,3.97-.36,5.56-1.09,1.58-.73,2.91-1.77,3.97-3.13,1.06-1.36,1.85-2.99,2.38-4.91.52-1.92.79-4.07.79-6.45s-.26-4.5-.79-6.43-1.32-3.58-2.38-4.95-2.38-2.42-3.97-3.16-3.44-1.11-5.56-1.11-3.97.37-5.56,1.11-2.91,1.79-3.97,3.16-1.86,3.02-2.39,4.95c-.54,1.93-.8,4.07-.8,6.43s.27,4.53.8,6.45c.54,1.92,1.33,3.56,2.39,4.91,1.06,1.36,2.38,2.4,3.97,3.13,1.58.73,3.44,1.09,5.56,1.09Z"/>
      <path class="st2" d="M1009.03,339.07v-35.55h1.86c.62,0,.98.3,1.07.89l.32,5.36c1.62-2.05,3.51-3.7,5.66-4.95,2.16-1.25,4.56-1.88,7.2-1.88,1.95,0,3.67.31,5.16.93,1.49.62,2.72,1.51,3.7,2.68.98,1.17,1.72,2.57,2.22,4.22.5,1.64.75,3.5.75,5.57v22.72h-3.39v-22.72c0-3.33-.76-5.95-2.29-7.84-1.53-1.89-3.86-2.84-7-2.84-2.33,0-4.5.6-6.5,1.8-2,1.2-3.79,2.85-5.36,4.95v26.65h-3.39Z"/>
      <path class="st2" d="M1058.8,339.65c-2.41,0-4.28-.67-5.61-2-1.33-1.33-2-3.39-2-6.18v-24.3h-5.11c-.26,0-.48-.07-.64-.21-.17-.14-.25-.35-.25-.61v-1.32l6.07-.43.85-12.72c.02-.21.11-.41.26-.57.15-.17.36-.25.62-.25h1.59v13.58h11.18v2.54h-11.18v24.12c0,.98.12,1.82.37,2.52s.6,1.28,1.04,1.73c.44.45.96.79,1.55,1s1.24.32,1.93.32c.86,0,1.6-.12,2.22-.37s1.16-.52,1.61-.82c.45-.3.82-.57,1.11-.82.29-.25.51-.37.68-.37.19,0,.38.12.57.36l.93,1.5c-.91,1-2.05,1.8-3.45,2.41-1.39.61-2.84.91-4.34.91Z"/>
      <path class="st2" d="M1076.02,339.07v-35.55h1.79c.41,0,.7.08.88.25.18.17.28.45.3.86l.29,7.5c1.14-2.88,2.67-5.14,4.57-6.77s4.25-2.45,7.04-2.45c1.07,0,2.06.11,2.97.34.9.23,1.76.55,2.57.98l-.46,2.36c-.07.38-.31.57-.72.57-.14,0-.35-.05-.61-.14-.26-.1-.59-.2-.98-.32-.39-.12-.87-.23-1.45-.32-.57-.09-1.23-.14-1.97-.14-2.69,0-4.9.83-6.63,2.5-1.73,1.67-3.13,4.07-4.2,7.22v23.12h-3.39Z"/>
      <path class="st2" d="M1119.36,302.95c2.55,0,4.83.43,6.84,1.3,2.01.87,3.71,2.1,5.09,3.7,1.38,1.6,2.44,3.52,3.16,5.77.73,2.25,1.09,4.77,1.09,7.56s-.36,5.3-1.09,7.54c-.73,2.24-1.78,4.16-3.16,5.75s-3.08,2.82-5.09,3.68c-2.01.86-4.29,1.29-6.84,1.29s-4.83-.43-6.84-1.29c-2.01-.86-3.72-2.09-5.11-3.68-1.39-1.6-2.45-3.51-3.18-5.75-.73-2.24-1.09-4.75-1.09-7.54s.36-5.31,1.09-7.56c.73-2.25,1.79-4.17,3.18-5.77,1.39-1.6,3.1-2.83,5.11-3.7,2.01-.87,4.29-1.3,6.84-1.3ZM1119.36,336.86c2.12,0,3.97-.36,5.56-1.09,1.58-.73,2.91-1.77,3.97-3.13,1.06-1.36,1.85-2.99,2.38-4.91.52-1.92.79-4.07.79-6.45s-.26-4.5-.79-6.43-1.32-3.58-2.38-4.95-2.38-2.42-3.97-3.16-3.44-1.11-5.56-1.11-3.97.37-5.56,1.11-2.91,1.79-3.97,3.16-1.86,3.02-2.39,4.95c-.54,1.93-.8,4.07-.8,6.43s.27,4.53.8,6.45c.54,1.92,1.33,3.56,2.39,4.91,1.06,1.36,2.38,2.4,3.97,3.13,1.58.73,3.44,1.09,5.56,1.09Z"/>
      <path class="st2" d="M1150.3,287.09v51.98h-3.4v-51.98h3.4Z"/>
      <path class="st2" d="M1204.73,339.07c-.59,0-.93-.31-1.02-.93l-.36-5.61c-1.57,2.14-3.42,3.85-5.53,5.11-2.11,1.26-4.48,1.89-7.1,1.89-4.37,0-7.77-1.51-10.21-4.54-2.45-3.03-3.67-7.56-3.67-13.61,0-2.6.34-5.02,1.02-7.27s1.68-4.2,3.01-5.86c1.32-1.66,2.95-2.96,4.87-3.91,1.92-.95,4.13-1.43,6.64-1.43s4.5.45,6.26,1.34c1.77.89,3.29,2.2,4.58,3.91v-21.08h3.4v51.98h-1.87ZM1191.69,336.79c2.36,0,4.5-.61,6.41-1.82,1.91-1.21,3.61-2.9,5.12-5.07v-18.76c-1.38-2.02-2.9-3.45-4.56-4.29-1.66-.83-3.54-1.25-5.64-1.25s-3.94.38-5.51,1.14c-1.57.76-2.89,1.84-3.95,3.23s-1.86,3.06-2.4,5c-.54,1.94-.8,4.08-.8,6.41,0,5.29.98,9.18,2.93,11.67,1.96,2.49,4.76,3.73,8.41,3.73Z"/>
      <path class="st2" d="M1233.37,302.95c2,0,3.85.35,5.56,1.04,1.7.69,3.18,1.7,4.43,3.02,1.25,1.32,2.23,2.95,2.93,4.88s1.05,4.14,1.05,6.65c0,.52-.08.88-.23,1.07-.16.19-.4.29-.73.29h-25.65v.68c0,2.67.31,5.01.93,7.04.62,2.03,1.5,3.72,2.65,5.09,1.14,1.37,2.52,2.4,4.14,3.09,1.62.69,3.43,1.04,5.43,1.04,1.79,0,3.33-.2,4.64-.59s2.41-.83,3.3-1.32c.89-.49,1.6-.93,2.13-1.32.52-.39.91-.59,1.14-.59.31,0,.55.12.71.36l.93,1.14c-.57.71-1.33,1.38-2.27,2-.94.62-1.99,1.15-3.15,1.59-1.16.44-2.39.79-3.72,1.05-1.32.26-2.65.39-3.98.39-2.43,0-4.64-.42-6.65-1.27-2-.85-3.72-2.08-5.15-3.7s-2.54-3.6-3.32-5.95c-.78-2.35-1.17-5.03-1.17-8.06,0-2.55.36-4.9,1.09-7.06.73-2.16,1.77-4.01,3.14-5.57,1.37-1.56,3.05-2.78,5.04-3.66,1.99-.88,4.25-1.32,6.77-1.32ZM1233.42,305.49c-1.83,0-3.47.29-4.92.86-1.45.57-2.71,1.39-3.76,2.47-1.06,1.07-1.91,2.36-2.57,3.86-.65,1.5-1.09,3.18-1.3,5.04h23.4c0-1.91-.26-3.61-.78-5.13-.52-1.51-1.26-2.79-2.21-3.84-.95-1.05-2.09-1.85-3.43-2.41-1.33-.56-2.81-.84-4.42-.84Z"/>
      <path class="st2" d="M1284.85,302.92c1.55,0,2.98.19,4.31.57,1.32.38,2.51.92,3.55,1.61h9.11v1.18c0,.6-.33.92-1,.97l-5.39.39c.67.91,1.18,1.92,1.54,3.05.36,1.13.54,2.34.54,3.63,0,1.72-.31,3.27-.93,4.66s-1.48,2.59-2.59,3.57c-1.11.99-2.44,1.76-3.98,2.3-1.55.55-3.26.82-5.14.82-2.05,0-3.91-.31-5.57-.93-1,.57-1.79,1.25-2.36,2.04-.57.79-.86,1.55-.86,2.29,0,1.02.36,1.81,1.07,2.36.72.55,1.66.95,2.84,1.2,1.18.25,2.52.41,4.04.48s3.05.15,4.61.23c1.56.08,3.09.23,4.61.45,1.51.21,2.86.59,4.04,1.12,1.18.54,2.13,1.29,2.84,2.25.71.97,1.07,2.24,1.07,3.84,0,1.48-.37,2.89-1.11,4.25-.74,1.36-1.8,2.56-3.2,3.61-1.39,1.05-3.08,1.89-5.06,2.52-1.98.63-4.19.95-6.65.95s-4.69-.26-6.57-.77c-1.88-.51-3.46-1.2-4.73-2.07-1.27-.87-2.23-1.88-2.88-3.02-.64-1.14-.97-2.36-.97-3.64,0-1.88.62-3.5,1.86-4.86,1.24-1.36,2.94-2.41,5.11-3.15-1.19-.4-2.14-.99-2.84-1.75-.7-.76-1.05-1.82-1.05-3.18,0-.5.09-1.02.29-1.57.19-.55.48-1.09.86-1.63.38-.54.84-1.04,1.38-1.52.54-.48,1.16-.91,1.88-1.29-1.69-.98-3.01-2.27-3.95-3.89-.94-1.62-1.41-3.51-1.41-5.68,0-1.72.3-3.27.91-4.66.61-1.39,1.46-2.59,2.57-3.59,1.11-1,2.45-1.77,4.02-2.32,1.57-.55,3.31-.82,5.22-.82ZM1298.03,341.47c0-1.12-.29-2.02-.88-2.7-.58-.68-1.36-1.21-2.34-1.59-.98-.38-2.1-.65-3.38-.8-1.28-.15-2.61-.27-4-.34s-2.79-.14-4.2-.21-2.72-.22-3.93-.43c-.91.36-1.74.77-2.52,1.23s-1.43.99-1.98,1.57c-.55.58-.98,1.23-1.29,1.93-.31.7-.46,1.47-.46,2.31,0,1.05.27,2.02.8,2.91.54.89,1.32,1.67,2.36,2.32,1.04.65,2.3,1.17,3.81,1.55,1.5.38,3.23.57,5.18.57,1.81,0,3.5-.2,5.06-.61,1.56-.41,2.92-.98,4.07-1.72s2.06-1.62,2.72-2.64c.66-1.03.98-2.14.98-3.36ZM1284.85,323.35c1.52,0,2.88-.22,4.07-.66,1.19-.44,2.19-1.05,3-1.84.81-.79,1.42-1.73,1.84-2.82.42-1.1.62-2.31.62-3.64s-.21-2.55-.64-3.66c-.43-1.11-1.05-2.05-1.88-2.84s-1.82-1.39-3-1.82c-1.18-.43-2.52-.64-4.02-.64s-2.85.21-4.04.64-2.2,1.04-3.02,1.82c-.82.79-1.45,1.73-1.88,2.84-.43,1.11-.64,2.33-.64,3.66s.21,2.55.64,3.64,1.05,2.04,1.88,2.82c.82.79,1.83,1.4,3.02,1.84,1.19.44,2.54.66,4.04.66Z"/>
      <path class="st2" d="M1324.01,302.95c2,0,3.85.35,5.56,1.04,1.7.69,3.18,1.7,4.43,3.02,1.25,1.32,2.23,2.95,2.93,4.88s1.05,4.14,1.05,6.65c0,.52-.08.88-.23,1.07-.16.19-.4.29-.73.29h-25.65v.68c0,2.67.31,5.01.93,7.04.62,2.03,1.5,3.72,2.65,5.09,1.14,1.37,2.52,2.4,4.14,3.09,1.62.69,3.43,1.04,5.43,1.04,1.79,0,3.33-.2,4.64-.59s2.41-.83,3.3-1.32c.89-.49,1.6-.93,2.13-1.32.52-.39.91-.59,1.14-.59.31,0,.55.12.71.36l.93,1.14c-.57.71-1.33,1.38-2.27,2-.94.62-1.99,1.15-3.15,1.59-1.16.44-2.39.79-3.72,1.05-1.32.26-2.65.39-3.98.39-2.43,0-4.64-.42-6.65-1.27-2-.85-3.72-2.08-5.15-3.7s-2.54-3.6-3.32-5.95c-.78-2.35-1.17-5.03-1.17-8.06,0-2.55.36-4.9,1.09-7.06.73-2.16,1.77-4.01,3.14-5.57,1.37-1.56,3.05-2.78,5.04-3.66,1.99-.88,4.25-1.32,6.77-1.32ZM1324.06,305.49c-1.83,0-3.47.29-4.92.86-1.45.57-2.71,1.39-3.76,2.47-1.06,1.07-1.91,2.36-2.57,3.86-.65,1.5-1.09,3.18-1.3,5.04h23.4c0-1.91-.26-3.61-.78-5.13-.52-1.51-1.26-2.79-2.21-3.84-.95-1.05-2.09-1.85-3.43-2.41-1.33-.56-2.81-.84-4.42-.84Z"/>
      <path class="st2" d="M1368.13,307.95c-.17.33-.43.5-.79.5-.26,0-.6-.15-1.02-.45-.42-.3-.97-.63-1.64-1-.68-.37-1.51-.7-2.5-1-.99-.3-2.2-.45-3.63-.45-1.29,0-2.46.19-3.52.55s-1.96.86-2.72,1.48c-.75.62-1.33,1.34-1.75,2.16-.42.82-.62,1.68-.62,2.58,0,1.12.29,2.04.86,2.78.57.74,1.32,1.36,2.25,1.89.93.52,1.98.97,3.16,1.36,1.18.38,2.39.76,3.63,1.14,1.24.38,2.45.8,3.63,1.27,1.18.46,2.23,1.04,3.16,1.73.93.69,1.68,1.54,2.25,2.54.57,1,.86,2.22.86,3.64,0,1.55-.28,2.99-.84,4.32-.56,1.33-1.37,2.49-2.43,3.47-1.06.98-2.36,1.75-3.91,2.32s-3.31.86-5.29.86c-2.5,0-4.66-.4-6.47-1.2-1.81-.8-3.43-1.84-4.86-3.13l.82-1.21c.12-.19.25-.33.39-.43.14-.1.35-.14.61-.14.31,0,.69.19,1.14.57.45.38,1.04.79,1.77,1.23.73.44,1.63.85,2.72,1.23,1.08.38,2.42.57,4.02.57,1.5,0,2.82-.21,3.96-.62,1.14-.42,2.1-.98,2.86-1.7.76-.71,1.34-1.55,1.73-2.52.39-.96.59-1.98.59-3.05,0-1.19-.29-2.18-.86-2.97-.57-.79-1.32-1.45-2.25-2-.93-.55-1.98-1.01-3.16-1.39-1.18-.38-2.39-.76-3.64-1.14-1.25-.38-2.47-.8-3.64-1.25-1.18-.45-2.23-1.02-3.16-1.72-.93-.69-1.68-1.53-2.25-2.52s-.86-2.22-.86-3.7c0-1.26.27-2.48.82-3.64.55-1.17,1.33-2.19,2.34-3.07s2.24-1.58,3.7-2.11c1.45-.52,3.08-.79,4.89-.79,2.17,0,4.09.31,5.77.94,1.68.63,3.22,1.59,4.63,2.88l-.75,1.18Z"/>
      <path class="st2" d="M1390.39,339.65c-2.41,0-4.28-.67-5.61-2-1.33-1.33-2-3.39-2-6.18v-24.3h-5.11c-.26,0-.48-.07-.64-.21-.17-.14-.25-.35-.25-.61v-1.32l6.07-.43.85-12.72c.02-.21.11-.41.26-.57.15-.17.36-.25.62-.25h1.59v13.58h11.18v2.54h-11.18v24.12c0,.98.12,1.82.37,2.52s.6,1.28,1.04,1.73c.44.45.96.79,1.55,1s1.24.32,1.93.32c.86,0,1.6-.12,2.22-.37s1.16-.52,1.61-.82c.45-.3.82-.57,1.11-.82.29-.25.51-.37.68-.37.19,0,.38.12.57.36l.93,1.5c-.91,1-2.05,1.8-3.45,2.41-1.39.61-2.84.91-4.34.91Z"/>
      <path class="st2" d="M1413.51,291.27c0,.43-.09.83-.27,1.2-.18.37-.41.7-.7.98-.29.29-.62.51-1,.68s-.79.25-1.21.25-.83-.08-1.22-.25-.71-.39-1-.68c-.29-.29-.51-.61-.68-.98-.17-.37-.25-.77-.25-1.2s.08-.84.25-1.23c.17-.39.39-.73.68-1.02.29-.29.62-.51,1-.68.38-.17.79-.25,1.22-.25s.83.08,1.21.25c.38.17.72.39,1,.68.29.29.52.62.7,1.02s.27.8.27,1.23ZM1412.01,303.52v35.55h-3.4v-35.55h3.4Z"/>
      <path class="st2" d="M1439.55,302.95c2.55,0,4.83.43,6.84,1.3,2.01.87,3.71,2.1,5.09,3.7,1.38,1.6,2.44,3.52,3.16,5.77.73,2.25,1.09,4.77,1.09,7.56s-.36,5.3-1.09,7.54c-.73,2.24-1.78,4.16-3.16,5.75-1.38,1.6-3.08,2.82-5.09,3.68-2.01.86-4.29,1.29-6.84,1.29s-4.83-.43-6.84-1.29c-2.01-.86-3.72-2.09-5.11-3.68-1.39-1.6-2.45-3.51-3.18-5.75-.73-2.24-1.09-4.75-1.09-7.54s.36-5.31,1.09-7.56c.73-2.25,1.79-4.17,3.18-5.77,1.39-1.6,3.1-2.83,5.11-3.7,2.01-.87,4.29-1.3,6.84-1.3ZM1439.55,336.86c2.12,0,3.97-.36,5.56-1.09,1.58-.73,2.91-1.77,3.97-3.13,1.06-1.36,1.85-2.99,2.38-4.91.52-1.92.79-4.07.79-6.45s-.26-4.5-.79-6.43c-.52-1.93-1.32-3.58-2.38-4.95-1.06-1.37-2.38-2.42-3.97-3.16s-3.44-1.11-5.56-1.11-3.97.37-5.56,1.11-2.91,1.79-3.97,3.16-1.86,3.02-2.39,4.95c-.54,1.93-.8,4.07-.8,6.43s.27,4.53.8,6.45c.54,1.92,1.33,3.56,2.39,4.91,1.06,1.36,2.38,2.4,3.97,3.13,1.58.73,3.44,1.09,5.56,1.09ZM1447.63,287.95l-7.72,9.04c-.19.24-.39.4-.59.48-.2.08-.45.12-.73.12h-2.04l5.61-8.5c.26-.43.54-.73.82-.89.29-.17.72-.25,1.29-.25h3.36Z"/>
      <path class="st2" d="M1466.1,339.07v-35.55h1.86c.62,0,.98.3,1.07.89l.32,5.36c1.62-2.05,3.51-3.7,5.66-4.95,2.16-1.25,4.56-1.88,7.2-1.88,1.95,0,3.67.31,5.16.93,1.49.62,2.72,1.51,3.7,2.68.98,1.17,1.72,2.57,2.22,4.22.5,1.64.75,3.5.75,5.57v22.72h-3.39v-22.72c0-3.33-.76-5.95-2.29-7.84-1.53-1.89-3.86-2.84-7-2.84-2.33,0-4.5.6-6.5,1.8-2,1.2-3.79,2.85-5.36,4.95v26.65h-3.39Z"/>
      <path class="st2" d="M1534.8,302.95c2,0,3.85.35,5.56,1.04,1.7.69,3.18,1.7,4.43,3.02,1.25,1.32,2.23,2.95,2.93,4.88s1.05,4.14,1.05,6.65c0,.52-.08.88-.23,1.07-.16.19-.4.29-.73.29h-25.65v.68c0,2.67.31,5.01.93,7.04.62,2.03,1.5,3.72,2.65,5.09,1.14,1.37,2.52,2.4,4.14,3.09,1.62.69,3.43,1.04,5.43,1.04,1.79,0,3.33-.2,4.64-.59s2.41-.83,3.3-1.32c.89-.49,1.6-.93,2.13-1.32.52-.39.91-.59,1.14-.59.31,0,.55.12.71.36l.93,1.14c-.57.71-1.33,1.38-2.27,2-.94.62-1.99,1.15-3.15,1.59-1.16.44-2.39.79-3.72,1.05-1.32.26-2.65.39-3.98.39-2.43,0-4.64-.42-6.65-1.27-2-.85-3.72-2.08-5.15-3.7s-2.54-3.6-3.32-5.95c-.78-2.35-1.17-5.03-1.17-8.06,0-2.55.36-4.9,1.09-7.06.73-2.16,1.77-4.01,3.14-5.57,1.37-1.56,3.05-2.78,5.04-3.66,1.99-.88,4.25-1.32,6.77-1.32ZM1534.85,305.49c-1.83,0-3.47.29-4.92.86-1.45.57-2.71,1.39-3.76,2.47-1.06,1.07-1.91,2.36-2.57,3.86-.65,1.5-1.09,3.18-1.3,5.04h23.4c0-1.91-.26-3.61-.78-5.13-.52-1.51-1.26-2.79-2.21-3.84-.95-1.05-2.09-1.85-3.43-2.41-1.33-.56-2.81-.84-4.42-.84Z"/>
      <path class="st2" d="M1559.35,339.07v-35.55h1.86c.62,0,.98.3,1.07.89l.32,5.15c.69-.98,1.43-1.87,2.22-2.68s1.63-1.51,2.52-2.09c.89-.58,1.85-1.04,2.86-1.36s2.08-.48,3.2-.48c2.59,0,4.67.76,6.22,2.27,1.55,1.51,2.59,3.61,3.14,6.31.43-1.48,1.03-2.75,1.8-3.82.77-1.07,1.66-1.96,2.66-2.66,1-.7,2.09-1.23,3.26-1.57,1.18-.35,2.38-.52,3.62-.52,1.76,0,3.34.29,4.75.87,1.4.58,2.6,1.45,3.58,2.59.99,1.14,1.74,2.55,2.27,4.22.52,1.67.78,3.57.78,5.72v22.72h-3.39v-22.72c0-3.48-.75-6.13-2.25-7.95-1.5-1.82-3.64-2.73-6.43-2.73-1.24,0-2.42.23-3.56.68-1.13.45-2.13,1.13-3,2.02-.87.89-1.56,2.01-2.07,3.34-.51,1.33-.77,2.88-.77,4.64v22.72h-3.4v-22.72c0-3.45-.69-6.1-2.07-7.93-1.38-1.83-3.39-2.75-6.04-2.75-1.93,0-3.71.58-5.36,1.73s-3.11,2.76-4.39,4.81v26.87h-3.39Z"/>
      <path class="st2" d="M1617.62,351.65v-48.13h1.86c.31,0,.56.07.75.2.19.13.3.36.32.7l.32,5.5c1.57-2.14,3.41-3.85,5.52-5.11,2.11-1.26,4.47-1.89,7.09-1.89,4.38,0,7.79,1.51,10.22,4.54,2.43,3.03,3.64,7.56,3.64,13.61,0,2.6-.34,5.02-1.02,7.27-.68,2.25-1.67,4.2-2.98,5.86s-2.92,2.96-4.84,3.91c-1.92.95-4.13,1.43-6.63,1.43s-4.53-.44-6.29-1.32c-1.76-.88-3.29-2.19-4.57-3.93v17.36h-3.39ZM1632.52,305.67c-2.36,0-4.5.61-6.41,1.84-1.92,1.23-3.61,2.94-5.09,5.13v18.65c1.36,2.05,2.86,3.49,4.52,4.32,1.66.83,3.54,1.25,5.66,1.25s3.93-.38,5.5-1.14c1.57-.76,2.89-1.84,3.95-3.23s1.86-3.06,2.39-5c.54-1.94.8-4.08.8-6.41,0-5.29-.97-9.18-2.91-11.67s-4.75-3.73-8.41-3.73Z"/>
      <path class="st2" d="M1657.28,339.07v-35.55h1.79c.41,0,.7.08.88.25.18.17.28.45.3.86l.29,7.5c1.14-2.88,2.67-5.14,4.57-6.77s4.25-2.45,7.04-2.45c1.07,0,2.06.11,2.97.34.9.23,1.76.55,2.57.98l-.46,2.36c-.07.38-.31.57-.72.57-.14,0-.35-.05-.61-.14-.26-.1-.59-.2-.98-.32-.39-.12-.87-.23-1.45-.32-.57-.09-1.23-.14-1.97-.14-2.69,0-4.9.83-6.63,2.5-1.73,1.67-3.13,4.07-4.2,7.22v23.12h-3.39Z"/>
      <path class="st2" d="M1700.47,302.95c2,0,3.85.35,5.56,1.04,1.7.69,3.18,1.7,4.43,3.02,1.25,1.32,2.23,2.95,2.93,4.88s1.05,4.14,1.05,6.65c0,.52-.08.88-.23,1.07-.16.19-.4.29-.73.29h-25.65v.68c0,2.67.31,5.01.93,7.04.62,2.03,1.5,3.72,2.65,5.09,1.14,1.37,2.52,2.4,4.14,3.09,1.62.69,3.43,1.04,5.43,1.04,1.79,0,3.33-.2,4.64-.59s2.41-.83,3.3-1.32c.89-.49,1.6-.93,2.13-1.32.52-.39.91-.59,1.14-.59.31,0,.55.12.71.36l.93,1.14c-.57.71-1.33,1.38-2.27,2-.94.62-1.99,1.15-3.15,1.59-1.16.44-2.39.79-3.72,1.05-1.32.26-2.65.39-3.98.39-2.43,0-4.64-.42-6.65-1.27-2-.85-3.72-2.08-5.15-3.7s-2.54-3.6-3.32-5.95c-.78-2.35-1.17-5.03-1.17-8.06,0-2.55.36-4.9,1.09-7.06.73-2.16,1.77-4.01,3.14-5.57,1.37-1.56,3.05-2.78,5.04-3.66,1.99-.88,4.25-1.32,6.77-1.32ZM1700.53,305.49c-1.83,0-3.47.29-4.92.86-1.45.57-2.71,1.39-3.76,2.47-1.06,1.07-1.91,2.36-2.57,3.86-.65,1.5-1.09,3.18-1.3,5.04h23.4c0-1.91-.26-3.61-.78-5.13-.52-1.51-1.26-2.79-2.21-3.84-.95-1.05-2.09-1.85-3.43-2.41-1.33-.56-2.81-.84-4.42-.84Z"/>
      <path class="st2" d="M1744.6,307.95c-.17.33-.43.5-.79.5-.26,0-.6-.15-1.02-.45-.42-.3-.97-.63-1.64-1-.68-.37-1.51-.7-2.5-1-.99-.3-2.2-.45-3.63-.45-1.29,0-2.46.19-3.52.55s-1.96.86-2.72,1.48c-.75.62-1.33,1.34-1.75,2.16-.42.82-.62,1.68-.62,2.58,0,1.12.29,2.04.86,2.78.57.74,1.32,1.36,2.25,1.89.93.52,1.98.97,3.16,1.36,1.18.38,2.39.76,3.63,1.14,1.24.38,2.45.8,3.63,1.27,1.18.46,2.23,1.04,3.16,1.73.93.69,1.68,1.54,2.25,2.54.57,1,.86,2.22.86,3.64,0,1.55-.28,2.99-.84,4.32-.56,1.33-1.37,2.49-2.43,3.47-1.06.98-2.36,1.75-3.91,2.32s-3.31.86-5.29.86c-2.5,0-4.66-.4-6.47-1.2-1.81-.8-3.43-1.84-4.86-3.13l.82-1.21c.12-.19.25-.33.39-.43.14-.1.35-.14.61-.14.31,0,.69.19,1.14.57.45.38,1.04.79,1.77,1.23.73.44,1.63.85,2.72,1.23,1.08.38,2.42.57,4.02.57,1.5,0,2.82-.21,3.96-.62,1.14-.42,2.1-.98,2.86-1.7.76-.71,1.34-1.55,1.73-2.52.39-.96.59-1.98.59-3.05,0-1.19-.29-2.18-.86-2.97-.57-.79-1.32-1.45-2.25-2-.93-.55-1.98-1.01-3.16-1.39-1.18-.38-2.39-.76-3.64-1.14-1.25-.38-2.47-.8-3.64-1.25-1.18-.45-2.23-1.02-3.16-1.72-.93-.69-1.68-1.53-2.25-2.52s-.86-2.22-.86-3.7c0-1.26.27-2.48.82-3.64.55-1.17,1.33-2.19,2.34-3.07s2.24-1.58,3.7-2.11c1.45-.52,3.08-.79,4.89-.79,2.17,0,4.09.31,5.77.94,1.68.63,3.22,1.59,4.63,2.88l-.75,1.18Z"/>
      <path class="st2" d="M1779.86,339.07c-.72,0-1.16-.33-1.32-1l-.5-4.54c-.98.95-1.95,1.81-2.91,2.57-.97.76-1.97,1.41-3.02,1.93s-2.18.92-3.39,1.2c-1.22.27-2.55.41-4,.41-1.22,0-2.39-.18-3.54-.54-1.14-.36-2.16-.91-3.04-1.64-.88-.74-1.59-1.68-2.13-2.84-.54-1.16-.8-2.54-.8-4.16,0-1.5.43-2.89,1.29-4.18.86-1.29,2.2-2.41,4.02-3.36s4.17-1.72,7.04-2.29c2.87-.57,6.32-.91,10.34-1v-3.71c0-3.29-.71-5.82-2.13-7.59-1.42-1.77-3.52-2.66-6.31-2.66-1.72,0-3.17.24-4.38.71-1.2.48-2.22,1-3.05,1.57-.83.57-1.51,1.1-2.04,1.57s-.97.71-1.32.71c-.48,0-.83-.21-1.07-.64l-.61-1.04c1.86-1.86,3.81-3.26,5.86-4.22,2.05-.95,4.37-1.43,6.97-1.43,1.91,0,3.57.3,5,.91,1.43.61,2.61,1.48,3.56,2.61.94,1.13,1.65,2.5,2.13,4.11.48,1.61.71,3.4.71,5.38v23.15h-1.36ZM1765.57,337.18c1.38,0,2.65-.15,3.81-.45,1.16-.3,2.23-.71,3.21-1.25.99-.54,1.91-1.17,2.77-1.91.86-.74,1.7-1.54,2.54-2.4v-9.25c-3.38.1-6.3.35-8.74.77-2.44.42-4.45.98-6.04,1.7-1.58.72-2.75,1.57-3.5,2.56-.75.99-1.13,2.11-1.13,3.38,0,1.19.2,2.22.59,3.09.39.87.91,1.59,1.55,2.14.64.56,1.39.97,2.25,1.23.86.26,1.75.39,2.68.39Z"/>
      <path class="st2" d="M1793.37,339.07v-35.55h1.79c.41,0,.7.08.88.25.18.17.28.45.3.86l.29,7.5c1.14-2.88,2.67-5.14,4.57-6.77s4.25-2.45,7.04-2.45c1.07,0,2.06.11,2.97.34.9.23,1.76.55,2.57.98l-.46,2.36c-.07.38-.31.57-.72.57-.14,0-.35-.05-.61-.14-.26-.1-.59-.2-.98-.32-.39-.12-.87-.23-1.45-.32-.57-.09-1.23-.14-1.97-.14-2.69,0-4.9.83-6.63,2.5-1.73,1.67-3.13,4.07-4.2,7.22v23.12h-3.39Z"/>
      <path class="st2" d="M1829.06,291.27c0,.43-.09.83-.27,1.2-.18.37-.41.7-.7.98-.29.29-.62.51-1,.68s-.79.25-1.21.25-.83-.08-1.22-.25-.71-.39-1-.68c-.29-.29-.51-.61-.68-.98-.17-.37-.25-.77-.25-1.2s.08-.84.25-1.23c.17-.39.39-.73.68-1.02.29-.29.62-.51,1-.68.38-.17.79-.25,1.22-.25s.83.08,1.21.25c.38.17.72.39,1,.68.29.29.52.62.7,1.02s.27.8.27,1.23ZM1827.56,303.52v35.55h-3.4v-35.55h3.4Z"/>
      <path class="st2" d="M1864.25,339.07c-.72,0-1.16-.33-1.32-1l-.5-4.54c-.98.95-1.95,1.81-2.91,2.57-.97.76-1.97,1.41-3.02,1.93s-2.18.92-3.39,1.2c-1.22.27-2.55.41-4,.41-1.22,0-2.39-.18-3.54-.54-1.14-.36-2.16-.91-3.04-1.64-.88-.74-1.59-1.68-2.13-2.84-.54-1.16-.8-2.54-.8-4.16,0-1.5.43-2.89,1.29-4.18.86-1.29,2.2-2.41,4.02-3.36s4.17-1.72,7.04-2.29c2.87-.57,6.32-.91,10.34-1v-3.71c0-3.29-.71-5.82-2.13-7.59-1.42-1.77-3.52-2.66-6.31-2.66-1.72,0-3.17.24-4.38.71-1.2.48-2.22,1-3.05,1.57-.83.57-1.51,1.1-2.04,1.57s-.97.71-1.32.71c-.48,0-.83-.21-1.07-.64l-.61-1.04c1.86-1.86,3.81-3.26,5.86-4.22,2.05-.95,4.37-1.43,6.97-1.43,1.91,0,3.57.3,5,.91,1.43.61,2.61,1.48,3.56,2.61.94,1.13,1.65,2.5,2.13,4.11.48,1.61.71,3.4.71,5.38v23.15h-1.36ZM1849.96,337.18c1.38,0,2.65-.15,3.81-.45,1.16-.3,2.23-.71,3.21-1.25.99-.54,1.91-1.17,2.77-1.91.86-.74,1.7-1.54,2.54-2.4v-9.25c-3.38.1-6.3.35-8.74.77-2.44.42-4.45.98-6.04,1.7-1.58.72-2.75,1.57-3.5,2.56-.75.99-1.13,2.11-1.13,3.38,0,1.19.2,2.22.59,3.09.39.87.91,1.59,1.55,2.14.64.56,1.39.97,2.25,1.23.86.26,1.75.39,2.68.39Z"/>
      <path class="st2" d="M1882.15,287.09v51.98h-3.4v-51.98h3.4Z"/>
    </g>
  </g>
</svg>