<?xml version="1.0" encoding="UTF-8"?>
<svg id="Layer_1" xmlns="http://www.w3.org/2000/svg" version="1.1" viewBox="0 0 2000 420">
  <!-- Generator: Adobe Illustrator 29.1.0, SVG Export Plug-In . SVG Version: 2.1.0 Build 142)  -->
  <defs>
    <style>
      .st0 {
        fill: #0e2841;
      }

      .st1 {
        fill: #bc1a04;
      }
    </style>
  </defs>
  <g>
    <polygon class="st0" points="319.09 67.67 222.21 163.72 151.17 93.3 125.34 67.69 125.34 67.67 73.68 67.67 73.68 88.78 73.68 120.7 73.68 193.02 73.68 338.26 125.34 338.26 125.34 244.24 125.34 171.92 125.34 139.99 151.17 165.6 222.21 236.03 319.09 139.98 370.76 88.76 370.76 67.67 319.09 67.67"/>
    <polygon class="st1" points="222.21 267.97 151.17 197.52 151.17 269.85 222.21 340.27 319.09 244.22 319.09 338.26 370.76 338.26 370.76 193 370.76 120.7 319.09 171.92 222.21 267.97"/>
  </g>
  <g>
    <path class="st0" d="M520.16,225.96c.79,1.89,1.58,3.8,2.34,5.72.77-1.98,1.56-3.92,2.39-5.84s1.7-3.76,2.63-5.51l35.21-65.89c.44-.82.89-1.48,1.36-1.98.47-.49.99-.85,1.56-1.07.58-.22,1.22-.36,1.93-.41.71-.05,1.56-.08,2.55-.08h16.7v118.95h-19.5v-76.83c0-1.42.04-2.99.12-4.69.08-1.7.21-3.43.37-5.18l-35.95,67.45c-.82,1.54-1.89,2.73-3.21,3.58s-2.85,1.28-4.61,1.28h-3.04c-1.76,0-3.29-.43-4.61-1.28s-2.39-2.04-3.21-3.58l-36.44-67.7c.22,1.81.37,3.58.45,5.31.08,1.73.12,3.33.12,4.81v76.83h-19.5v-118.95h16.7c.99,0,1.84.03,2.55.08.71.06,1.36.19,1.93.41.57.22,1.11.58,1.6,1.07s.96,1.15,1.4,1.98l35.54,66.05c.93,1.76,1.79,3.58,2.59,5.47Z"/>
    <path class="st0" d="M675.01,269.84h-9.13c-1.92,0-3.43-.29-4.52-.86-1.1-.58-1.92-1.74-2.47-3.5l-1.81-6.01c-2.14,1.92-4.24,3.61-6.29,5.06-2.06,1.45-4.18,2.67-6.37,3.66-2.19.99-4.52,1.73-6.99,2.22-2.47.49-5.21.74-8.23.74-3.57,0-6.86-.48-9.87-1.44-3.02-.96-5.61-2.41-7.77-4.33-2.17-1.93-3.85-4.32-5.06-7.18-1.21-2.86-1.81-6.19-1.81-9.99,0-3.19.84-6.34,2.51-9.45,1.67-3.11,4.45-5.91,8.35-8.42,3.89-2.5,9.08-4.58,15.55-6.23,6.47-1.65,14.5-2.48,24.1-2.48v-4.97c0-5.69-1.19-9.91-3.58-12.64-2.39-2.73-5.85-4.1-10.41-4.1-3.29,0-6.03.38-8.23,1.15s-4.1,1.63-5.72,2.59c-1.62.96-3.11,1.82-4.48,2.59-1.37.77-2.88,1.15-4.52,1.15-1.37,0-2.55-.36-3.54-1.07-.99-.71-1.78-1.59-2.39-2.63l-3.7-6.5c9.71-8.88,21.41-13.33,35.13-13.33,4.94,0,9.34.81,13.2,2.43,3.87,1.62,7.14,3.87,9.83,6.75,2.69,2.88,4.73,6.32,6.13,10.32,1.4,4,2.1,8.39,2.1,13.16v53.3ZM635.53,257.18c2.08,0,4-.19,5.76-.57,1.75-.38,3.41-.94,4.98-1.7,1.56-.76,3.07-1.69,4.52-2.79s2.92-2.42,4.4-3.93v-14.13c-5.92,0-10.87.37-14.85,1.12-3.98.74-7.17,1.7-9.58,2.86-2.41,1.16-4.13,2.51-5.14,4.06-1.02,1.55-1.52,3.23-1.52,5.05,0,3.59,1.05,6.16,3.17,7.71,2.11,1.55,4.87,2.32,8.27,2.32Z"/>
    <path class="st0" d="M744.27,201.9c-.55.88-1.12,1.49-1.73,1.85-.6.36-1.37.54-2.3.54-.99,0-2.04-.27-3.17-.82-1.12-.55-2.43-1.17-3.91-1.85-1.48-.68-3.17-1.3-5.06-1.85-1.89-.55-4.13-.82-6.7-.82-4.01,0-7.16.85-9.46,2.55-2.3,1.7-3.45,3.92-3.45,6.66,0,1.81.59,3.33,1.77,4.57,1.18,1.23,2.74,2.32,4.69,3.25,1.95.93,4.15,1.77,6.62,2.51,2.47.74,4.99,1.55,7.57,2.43,2.58.88,5.1,1.88,7.57,3,2.47,1.12,4.67,2.55,6.62,4.28,1.95,1.73,3.51,3.8,4.69,6.21,1.18,2.41,1.77,5.32,1.77,8.72,0,4.06-.74,7.8-2.22,11.23-1.48,3.43-3.65,6.39-6.5,8.89s-6.37,4.44-10.57,5.84c-4.2,1.4-9.01,2.1-14.44,2.1-2.91,0-5.74-.26-8.51-.78-2.77-.52-5.43-1.25-7.98-2.18-2.55-.93-4.91-2.03-7.07-3.29-2.17-1.26-4.07-2.63-5.72-4.11l4.69-7.73c.6-.93,1.32-1.65,2.14-2.14s1.86-.74,3.13-.74,2.45.36,3.58,1.07c1.12.71,2.43,1.48,3.91,2.3,1.48.82,3.22,1.59,5.22,2.3,2,.71,4.54,1.07,7.61,1.07,2.41,0,4.48-.29,6.21-.86s3.15-1.33,4.28-2.26c1.12-.93,1.95-2.02,2.47-3.25.52-1.23.78-2.51.78-3.83,0-1.98-.59-3.59-1.77-4.85-1.18-1.26-2.74-2.36-4.69-3.29-1.95-.93-4.17-1.77-6.66-2.51-2.5-.74-5.05-1.55-7.65-2.43-2.6-.88-5.15-1.9-7.65-3.09-2.5-1.18-4.72-2.67-6.66-4.48-1.95-1.81-3.51-4.03-4.69-6.66s-1.77-5.81-1.77-9.54c0-3.45.68-6.74,2.06-9.87,1.37-3.13,3.39-5.85,6.05-8.19,2.66-2.33,5.98-4.2,9.95-5.59,3.97-1.4,8.57-2.1,13.78-2.1,5.81,0,11.11.96,15.88,2.88,4.77,1.92,8.75,4.44,11.93,7.57l-4.61,7.32Z"/>
    <path class="st0" d="M768.87,269.84v-69.1l-7.32-1.15c-1.59-.27-2.87-.82-3.83-1.64-.96-.82-1.44-1.98-1.44-3.46v-8.31h12.59v-6.25c0-4.82.73-9.16,2.18-13,1.45-3.84,3.54-7.1,6.25-9.79,2.71-2.69,6.02-4.74,9.91-6.17,3.89-1.42,8.28-2.14,13.16-2.14,3.89,0,7.51.52,10.86,1.56l-.41,10.2c-.11,1.59-.85,2.58-2.22,2.96-1.37.38-2.96.58-4.77.58-2.41,0-4.57.26-6.46.78-1.89.52-3.5,1.43-4.81,2.72-1.32,1.29-2.32,2.99-3,5.1-.69,2.11-1.03,4.73-1.03,7.86v5.59h21.96v14.48h-21.3v69.18h-20.32Z"/>
    <path class="st0" d="M856.97,184.13c5.32,0,10.21.85,14.68,2.55,4.47,1.7,8.32,4.18,11.56,7.45,3.23,3.26,5.76,7.27,7.57,12.01,1.81,4.74,2.72,10.16,2.72,16.25,0,1.54-.07,2.81-.21,3.83-.14,1.02-.38,1.81-.74,2.39-.36.58-.84.99-1.44,1.23-.6.25-1.37.37-2.3.37h-52.15c.6,8.67,2.93,15.03,6.99,19.08,4.06,4.06,9.43,6.09,16.12,6.09,3.29,0,6.13-.38,8.51-1.15,2.39-.77,4.47-1.62,6.25-2.55,1.78-.93,3.34-1.78,4.69-2.55,1.34-.77,2.65-1.15,3.91-1.15.82,0,1.54.16,2.14.49s1.12.8,1.56,1.4l5.92,7.4c-2.25,2.63-4.77,4.84-7.57,6.62-2.8,1.78-5.72,3.21-8.76,4.28-3.04,1.07-6.14,1.82-9.3,2.26-3.15.44-6.21.66-9.17.66-5.87,0-11.33-.97-16.37-2.92-5.05-1.95-9.43-4.82-13.16-8.64-3.73-3.81-6.66-8.53-8.8-14.15-2.14-5.62-3.21-12.13-3.21-19.54,0-5.76.93-11.17,2.8-16.25,1.86-5.07,4.54-9.49,8.02-13.24,3.48-3.76,7.73-6.73,12.75-8.92s10.68-3.29,16.99-3.29ZM857.38,198.69c-5.92,0-10.56,1.67-13.9,5.02-3.35,3.34-5.49,8.09-6.42,14.23h38.17c0-2.63-.36-5.11-1.07-7.44s-1.81-4.37-3.29-6.13c-1.48-1.75-3.35-3.14-5.59-4.15-2.25-1.01-4.88-1.52-7.9-1.52Z"/>
    <path class="st0" d="M909.2,269.84v-84.4h11.93c2.08,0,3.54.38,4.36,1.15s1.37,2.08,1.65,3.95l1.23,10.2c3.02-5.21,6.55-9.32,10.61-12.34,4.06-3.02,8.61-4.52,13.65-4.52,4.17,0,7.62.96,10.37,2.88l-2.63,15.22c-.17.99-.52,1.69-1.07,2.1-.55.41-1.29.62-2.22.62-.82,0-1.95-.19-3.37-.58-1.43-.38-3.32-.58-5.68-.58-4.22,0-7.84,1.17-10.86,3.5-3.02,2.33-5.57,5.74-7.65,10.24v52.56h-20.32Z"/>
    <path class="st0" d="M975.58,269.84v-84.4h11.93c2.08,0,3.54.38,4.36,1.15s1.37,2.08,1.65,3.95l1.23,10.2c3.02-5.21,6.55-9.32,10.61-12.34,4.06-3.02,8.61-4.52,13.65-4.52,4.17,0,7.62.96,10.37,2.88l-2.63,15.22c-.17.99-.52,1.69-1.07,2.1-.55.41-1.29.62-2.22.62-.82,0-1.95-.19-3.37-.58-1.43-.38-3.32-.58-5.68-.58-4.22,0-7.84,1.17-10.86,3.5-3.02,2.33-5.57,5.74-7.65,10.24v52.56h-20.32Z"/>
    <path class="st0" d="M1076.84,184.13c5.32,0,10.21.85,14.68,2.55,4.47,1.7,8.32,4.18,11.56,7.45,3.23,3.26,5.76,7.27,7.57,12.01,1.81,4.74,2.72,10.16,2.72,16.25,0,1.54-.07,2.81-.21,3.83-.14,1.02-.38,1.81-.74,2.39-.36.58-.84.99-1.44,1.23-.6.25-1.37.37-2.3.37h-52.15c.6,8.67,2.93,15.03,6.99,19.08,4.06,4.06,9.43,6.09,16.12,6.09,3.29,0,6.13-.38,8.51-1.15,2.39-.77,4.47-1.62,6.25-2.55,1.78-.93,3.34-1.78,4.69-2.55,1.34-.77,2.65-1.15,3.91-1.15.82,0,1.54.16,2.14.49s1.12.8,1.56,1.4l5.92,7.4c-2.25,2.63-4.77,4.84-7.57,6.62-2.8,1.78-5.72,3.21-8.76,4.28-3.04,1.07-6.14,1.82-9.3,2.26-3.15.44-6.21.66-9.17.66-5.87,0-11.33-.97-16.37-2.92-5.05-1.95-9.43-4.82-13.16-8.64-3.73-3.81-6.66-8.53-8.8-14.15-2.14-5.62-3.21-12.13-3.21-19.54,0-5.76.93-11.17,2.8-16.25,1.86-5.07,4.54-9.49,8.02-13.24,3.48-3.76,7.73-6.73,12.75-8.92s10.68-3.29,16.99-3.29ZM1077.25,198.69c-5.92,0-10.56,1.67-13.9,5.02-3.35,3.34-5.49,8.09-6.42,14.23h38.17c0-2.63-.36-5.11-1.07-7.44s-1.81-4.37-3.29-6.13c-1.48-1.75-3.35-3.14-5.59-4.15-2.25-1.01-4.88-1.52-7.9-1.52Z"/>
    <path class="st0" d="M1129.07,269.84v-84.4h11.93c2.08,0,3.54.38,4.36,1.15s1.37,2.08,1.65,3.95l1.23,10.2c3.02-5.21,6.55-9.32,10.61-12.34,4.06-3.02,8.61-4.52,13.65-4.52,4.17,0,7.62.96,10.37,2.88l-2.63,15.22c-.17.99-.52,1.69-1.07,2.1-.55.41-1.29.62-2.22.62-.82,0-1.95-.19-3.37-.58-1.43-.38-3.32-.58-5.68-.58-4.22,0-7.84,1.17-10.86,3.5-3.02,2.33-5.57,5.74-7.65,10.24v52.56h-20.32Z"/>
    <path class="st1" d="M1239.14,149.58c4.82,0,9.14.74,12.96,2.22,3.81,1.48,7.07,3.46,9.79,5.92,2.72,2.47,4.85,5.29,6.42,8.47,1.56,3.18,2.48,6.47,2.76,9.87l-12.91,2.71c-.16.06-.34.08-.53.08h-.54c-.93,0-1.77-.26-2.51-.78s-1.33-1.33-1.77-2.43c-.49-1.42-1.12-2.78-1.89-4.07-.77-1.29-1.7-2.41-2.8-3.37-1.1-.96-2.39-1.73-3.87-2.3-1.48-.58-3.18-.86-5.1-.86-2.3,0-4.36.4-6.17,1.19-1.81.8-3.35,1.87-4.61,3.21-1.26,1.35-2.22,2.91-2.88,4.69-.66,1.78-.99,3.66-.99,5.63,0,1.64.18,3.24.53,4.77.36,1.54.92,3.07,1.69,4.61.77,1.54,1.77,3.11,3,4.73,1.23,1.62,2.76,3.36,4.57,5.22l31.59,32.82c1.81-3.46,3.26-7.1,4.36-10.94,1.1-3.84,1.81-7.73,2.14-11.68.11-1.26.52-2.28,1.23-3.04.71-.77,1.7-1.15,2.96-1.15h12.75c-.06,7.24-1.1,14.15-3.13,20.73-2.03,6.58-4.94,12.64-8.72,18.18l24.92,25.83h-19.91c-1.04,0-1.96-.05-2.76-.16-.8-.11-1.55-.31-2.26-.62-.71-.3-1.4-.7-2.06-1.19-.66-.49-1.35-1.12-2.06-1.89l-8.22-8.47c-5.26,4.28-11.12,7.62-17.56,10.04-6.44,2.41-13.42,3.62-20.93,3.62-4.61,0-9.1-.78-13.49-2.35-4.39-1.56-8.31-3.83-11.76-6.79-3.46-2.96-6.24-6.54-8.35-10.74-2.11-4.2-3.17-8.93-3.17-14.19,0-3.67.6-7.17,1.81-10.49,1.21-3.32,2.88-6.4,5.02-9.25,2.14-2.85,4.68-5.43,7.61-7.73,2.93-2.3,6.16-4.28,9.67-5.92-2.91-4.11-5.03-8.13-6.38-12.05s-2.02-7.83-2.02-11.72c0-4.11.75-8.02,2.26-11.72,1.51-3.7,3.7-6.92,6.58-9.67,2.88-2.74,6.4-4.92,10.57-6.54,4.17-1.62,8.88-2.43,14.15-2.43ZM1210.51,235.46c0,3.02.52,5.73,1.56,8.15,1.04,2.41,2.47,4.45,4.28,6.13,1.81,1.67,3.91,2.96,6.29,3.87,2.39.91,4.92,1.36,7.61,1.36,4.82,0,9.23-.75,13.2-2.26s7.61-3.61,10.9-6.29l-31.26-32.08c-4.39,2.85-7.58,6.06-9.58,9.62-2,3.57-3,7.4-3,11.52Z"/>
    <path class="st0" d="M1336.12,227.97v41.87h-22.13v-118.95h38.74c7.95,0,14.83.93,20.65,2.8,5.81,1.86,10.61,4.47,14.4,7.81,3.78,3.34,6.58,7.35,8.39,12.01,1.81,4.66,2.72,9.76,2.72,15.3s-.96,11.04-2.88,15.84c-1.92,4.8-4.8,8.92-8.64,12.38-3.84,3.46-8.64,6.14-14.39,8.06-5.76,1.92-12.5,2.88-20.24,2.88h-16.62ZM1336.12,210.7h16.62c4.06,0,7.59-.51,10.61-1.52,3.02-1.01,5.51-2.47,7.49-4.36,1.98-1.89,3.46-4.2,4.44-6.91.99-2.71,1.48-5.74,1.48-9.09s-.49-6.06-1.48-8.64c-.99-2.58-2.47-4.77-4.44-6.58-1.97-1.81-4.47-3.19-7.49-4.15-3.02-.96-6.55-1.44-10.61-1.44h-16.62v42.69Z"/>
    <path class="st0" d="M1476.13,269.84h-9.13c-1.92,0-3.43-.29-4.52-.86-1.1-.58-1.92-1.74-2.47-3.5l-1.81-6.01c-2.14,1.92-4.24,3.61-6.29,5.06-2.06,1.45-4.18,2.67-6.37,3.66-2.19.99-4.52,1.73-6.99,2.22-2.47.49-5.21.74-8.23.74-3.57,0-6.86-.48-9.87-1.44-3.02-.96-5.61-2.41-7.77-4.33-2.17-1.93-3.85-4.32-5.06-7.18-1.21-2.86-1.81-6.19-1.81-9.99,0-3.19.84-6.34,2.51-9.45,1.67-3.11,4.45-5.91,8.35-8.42,3.89-2.5,9.08-4.58,15.55-6.23,6.47-1.65,14.5-2.48,24.1-2.48v-4.97c0-5.69-1.19-9.91-3.58-12.64-2.39-2.73-5.85-4.1-10.41-4.1-3.29,0-6.03.38-8.23,1.15s-4.1,1.63-5.72,2.59c-1.62.96-3.11,1.82-4.48,2.59-1.37.77-2.88,1.15-4.52,1.15-1.37,0-2.55-.36-3.54-1.07-.99-.71-1.78-1.59-2.39-2.63l-3.7-6.5c9.71-8.88,21.41-13.33,35.13-13.33,4.94,0,9.34.81,13.2,2.43,3.87,1.62,7.14,3.87,9.83,6.75,2.69,2.88,4.73,6.32,6.13,10.32,1.4,4,2.1,8.39,2.1,13.16v53.3ZM1436.64,257.18c2.08,0,4-.19,5.76-.57,1.75-.38,3.41-.94,4.98-1.7,1.56-.76,3.07-1.69,4.52-2.79s2.92-2.42,4.4-3.93v-14.13c-5.92,0-10.87.37-14.85,1.12-3.98.74-7.17,1.7-9.58,2.86-2.41,1.16-4.13,2.51-5.14,4.06-1.02,1.55-1.52,3.23-1.52,5.05,0,3.59,1.05,6.16,3.17,7.71,2.11,1.55,4.87,2.32,8.27,2.32Z"/>
    <path class="st0" d="M1495.29,269.84v-84.4h11.93c2.08,0,3.54.38,4.36,1.15s1.37,2.08,1.65,3.95l1.23,10.2c3.02-5.21,6.55-9.32,10.61-12.34,4.06-3.02,8.61-4.52,13.65-4.52,4.17,0,7.62.96,10.37,2.88l-2.63,15.22c-.17.99-.52,1.69-1.07,2.1-.55.41-1.29.62-2.22.62-.82,0-1.95-.19-3.37-.58-1.43-.38-3.32-.58-5.68-.58-4.22,0-7.84,1.17-10.86,3.5-3.02,2.33-5.57,5.74-7.65,10.24v52.56h-20.32Z"/>
    <path class="st0" d="M1589.4,271.16c-7.29,0-12.91-2.07-16.86-6.21-3.95-4.14-5.92-9.86-5.92-17.15v-47.14h-8.55c-1.1,0-2.04-.36-2.84-1.07-.8-.71-1.19-1.78-1.19-3.21v-8.06l13.57-2.22,4.28-23.03c.22-1.1.73-1.95,1.52-2.55.79-.6,1.79-.91,3-.91h10.53v26.57h22.21v14.48h-22.21v45.74c0,2.63.66,4.69,1.98,6.17,1.32,1.48,3.07,2.22,5.26,2.22,1.26,0,2.32-.15,3.17-.45.85-.3,1.59-.62,2.22-.95.63-.33,1.19-.64,1.69-.95.49-.3.99-.45,1.48-.45.6,0,1.1.15,1.48.45.38.3.79.75,1.23,1.36l6.09,9.87c-2.96,2.47-6.36,4.33-10.2,5.59s-7.81,1.89-11.93,1.89Z"/>
    <path class="st0" d="M1624.52,269.84v-84.4h12.42c2.63,0,4.36,1.23,5.18,3.7l1.4,6.66c1.7-1.75,3.5-3.34,5.39-4.77,1.89-1.42,3.89-2.66,6-3.7,2.11-1.04,4.37-1.84,6.79-2.39,2.41-.55,5.04-.82,7.9-.82,4.61,0,8.69.78,12.26,2.35,3.57,1.56,6.54,3.76,8.93,6.58,2.39,2.83,4.2,6.2,5.43,10.12,1.23,3.92,1.85,8.24,1.85,12.96v53.71h-20.32v-53.71c0-5.15-1.19-9.14-3.58-11.97-2.39-2.82-5.96-4.24-10.74-4.24-3.51,0-6.8.8-9.87,2.39-3.07,1.59-5.98,3.76-8.72,6.5v61.04h-20.32Z"/>
    <path class="st0" d="M1752.1,184.13c5.32,0,10.21.85,14.68,2.55,4.47,1.7,8.32,4.18,11.56,7.45,3.23,3.26,5.76,7.27,7.57,12.01,1.81,4.74,2.72,10.16,2.72,16.25,0,1.54-.07,2.81-.21,3.83-.14,1.02-.38,1.81-.74,2.39-.36.58-.84.99-1.44,1.23-.6.25-1.37.37-2.3.37h-52.15c.6,8.67,2.93,15.03,6.99,19.08,4.06,4.06,9.43,6.09,16.12,6.09,3.29,0,6.13-.38,8.51-1.15,2.39-.77,4.47-1.62,6.25-2.55,1.78-.93,3.34-1.78,4.69-2.55,1.34-.77,2.65-1.15,3.91-1.15.82,0,1.54.16,2.14.49s1.12.8,1.56,1.4l5.92,7.4c-2.25,2.63-4.77,4.84-7.57,6.62-2.8,1.78-5.72,3.21-8.76,4.28-3.04,1.07-6.14,1.82-9.3,2.26-3.15.44-6.21.66-9.17.66-5.87,0-11.33-.97-16.37-2.92-5.05-1.95-9.43-4.82-13.16-8.64-3.73-3.81-6.66-8.53-8.8-14.15-2.14-5.62-3.21-12.13-3.21-19.54,0-5.76.93-11.17,2.8-16.25,1.86-5.07,4.54-9.49,8.02-13.24,3.48-3.76,7.73-6.73,12.75-8.92s10.68-3.29,16.99-3.29ZM1752.51,198.69c-5.92,0-10.56,1.67-13.9,5.02-3.35,3.34-5.49,8.09-6.42,14.23h38.17c0-2.63-.36-5.11-1.07-7.44s-1.81-4.37-3.29-6.13c-1.48-1.75-3.35-3.14-5.59-4.15-2.25-1.01-4.88-1.52-7.9-1.52Z"/>
    <path class="st0" d="M1804.34,269.84v-84.4h11.93c2.08,0,3.54.38,4.36,1.15s1.37,2.08,1.65,3.95l1.23,10.2c3.02-5.21,6.55-9.32,10.61-12.34,4.06-3.02,8.61-4.52,13.65-4.52,4.17,0,7.62.96,10.37,2.88l-2.63,15.22c-.17.99-.52,1.69-1.07,2.1-.55.41-1.29.62-2.22.62-.82,0-1.95-.19-3.37-.58-1.43-.38-3.32-.58-5.68-.58-4.22,0-7.84,1.17-10.86,3.5-3.02,2.33-5.57,5.74-7.65,10.24v52.56h-20.32Z"/>
    <path class="st0" d="M1920.81,201.9c-.55.88-1.12,1.49-1.73,1.85-.6.36-1.37.54-2.3.54-.99,0-2.04-.27-3.17-.82-1.12-.55-2.43-1.17-3.91-1.85-1.48-.68-3.17-1.3-5.06-1.85-1.89-.55-4.13-.82-6.7-.82-4.01,0-7.16.85-9.46,2.55-2.3,1.7-3.45,3.92-3.45,6.66,0,1.81.59,3.33,1.77,4.57,1.18,1.23,2.74,2.32,4.69,3.25,1.95.93,4.15,1.77,6.62,2.51,2.47.74,4.99,1.55,7.57,2.43,2.58.88,5.1,1.88,7.57,3,2.47,1.12,4.67,2.55,6.62,4.28,1.95,1.73,3.51,3.8,4.69,6.21,1.18,2.41,1.77,5.32,1.77,8.72,0,4.06-.74,7.8-2.22,11.23-1.48,3.43-3.65,6.39-6.5,8.89s-6.37,4.44-10.57,5.84c-4.2,1.4-9.01,2.1-14.44,2.1-2.91,0-5.74-.26-8.51-.78-2.77-.52-5.43-1.25-7.98-2.18-2.55-.93-4.91-2.03-7.07-3.29-2.17-1.26-4.07-2.63-5.72-4.11l4.69-7.73c.6-.93,1.32-1.65,2.14-2.14s1.86-.74,3.13-.74,2.45.36,3.58,1.07c1.12.71,2.43,1.48,3.91,2.3,1.48.82,3.22,1.59,5.22,2.3,2,.71,4.54,1.07,7.61,1.07,2.41,0,4.48-.29,6.21-.86s3.15-1.33,4.28-2.26c1.12-.93,1.95-2.02,2.47-3.25.52-1.23.78-2.51.78-3.83,0-1.98-.59-3.59-1.77-4.85-1.18-1.26-2.74-2.36-4.69-3.29-1.95-.93-4.17-1.77-6.66-2.51-2.5-.74-5.05-1.55-7.65-2.43-2.6-.88-5.15-1.9-7.65-3.09-2.5-1.18-4.72-2.67-6.66-4.48-1.95-1.81-3.51-4.03-4.69-6.66-1.18-2.63-1.77-5.81-1.77-9.54,0-3.45.68-6.74,2.06-9.87,1.37-3.13,3.39-5.85,6.05-8.19,2.66-2.33,5.98-4.2,9.95-5.59,3.97-1.4,8.57-2.1,13.78-2.1,5.81,0,11.11.96,15.88,2.88,4.77,1.92,8.75,4.44,11.93,7.57l-4.61,7.32Z"/>
  </g>
</svg>