<?xml version="1.0" encoding="UTF-8"?>
<svg id="Layer_1" xmlns="http://www.w3.org/2000/svg" version="1.1" viewBox="0 0 2000 900">
  <!-- Generator: Adobe Illustrator 29.1.0, SVG Export Plug-In . SVG Version: 2.1.0 Build 142)  -->
  <defs>
    <style>
      .st0 {
        fill: #0e2841;
      }

      .st1 {
        fill: #bc1a04;
      }

      .st2 {
        fill: #8c8c8c;
      }
    </style>
  </defs>
  <g>
    <polygon class="st0" points="1122.22 67.5 997.74 190.92 906.46 100.43 873.28 67.53 873.28 67.5 806.9 67.5 806.9 94.62 806.9 135.64 806.9 228.56 806.9 415.17 873.28 415.17 873.28 294.36 873.28 201.44 873.28 160.43 906.46 193.33 997.74 283.82 1122.22 160.4 1188.6 94.6 1188.6 67.5 1122.22 67.5"/>
    <polygon class="st1" points="997.74 324.85 906.46 234.34 906.46 327.27 997.74 417.75 1122.22 294.34 1122.22 415.17 1188.6 415.17 1188.6 228.54 1188.6 135.64 1122.22 201.44 997.74 324.85"/>
  </g>
  <g>
    <path class="st0" d="M138.67,618.46c1.02,2.43,2.02,4.88,3.01,7.35.99-2.54,2.01-5.04,3.07-7.5s2.18-4.82,3.38-7.08l45.24-84.66c.56-1.06,1.14-1.9,1.74-2.54.6-.63,1.27-1.09,2.01-1.37.74-.28,1.57-.46,2.48-.53.92-.07,2.01-.11,3.28-.11h21.45v152.83h-25.05v-98.72c0-1.83.05-3.84.16-6.02.11-2.18.26-4.4.48-6.66l-46.19,86.67c-1.06,1.97-2.43,3.51-4.12,4.6s-3.67,1.64-5.92,1.64h-3.91c-2.26,0-4.23-.55-5.92-1.64s-3.07-2.63-4.12-4.6l-46.82-86.98c.28,2.32.48,4.6.58,6.82.11,2.22.16,4.28.16,6.18v98.72h-25.05v-152.83h21.46c1.27,0,2.36.04,3.28.11.92.07,1.75.25,2.49.53.74.28,1.43.74,2.06,1.37s1.23,1.48,1.8,2.54l45.66,84.87c1.2,2.26,2.31,4.6,3.33,7.03Z"/>
    <path class="st0" d="M337.63,674.84h-11.73c-2.47,0-4.41-.37-5.81-1.11-1.41-.74-2.47-2.24-3.17-4.49l-2.32-7.72c-2.75,2.47-5.44,4.64-8.09,6.5-2.64,1.87-5.37,3.43-8.19,4.7-2.82,1.27-5.81,2.22-8.98,2.85-3.17.63-6.7.95-10.57.95-4.58,0-8.81-.62-12.68-1.85-3.88-1.24-7.2-3.09-9.99-5.57-2.78-2.48-4.95-5.55-6.5-9.23-1.55-3.68-2.32-7.95-2.32-12.83,0-4.1,1.07-8.15,3.22-12.14,2.15-3.99,5.72-7.6,10.73-10.81,5-3.22,11.66-5.89,19.98-8.01,8.31-2.12,18.63-3.18,30.97-3.18v-6.39c0-7.31-1.53-12.73-4.6-16.24-3.07-3.51-7.52-5.27-13.37-5.27-4.23,0-7.75.49-10.57,1.48s-5.27,2.1-7.34,3.33c-2.08,1.23-4,2.34-5.76,3.33-1.76.99-3.7,1.48-5.81,1.48-1.76,0-3.28-.46-4.54-1.37-1.27-.92-2.29-2.04-3.07-3.38l-4.76-8.35c12.47-11.41,27.51-17.12,45.13-17.12,6.34,0,12,1.04,16.96,3.12,4.97,2.08,9.18,4.97,12.63,8.67,3.45,3.7,6.08,8.12,7.87,13.26,1.8,5.14,2.7,10.78,2.7,16.91v68.49ZM286.89,658.57c2.68,0,5.14-.24,7.4-.73,2.25-.49,4.38-1.21,6.4-2.19,2.01-.97,3.95-2.17,5.81-3.59s3.75-3.1,5.65-5.05v-18.15c-7.61,0-13.97.48-19.08,1.44-5.11.96-9.21,2.18-12.31,3.67-3.1,1.49-5.3,3.23-6.61,5.22-1.31,1.99-1.96,4.15-1.96,6.49,0,4.61,1.36,7.92,4.07,9.9,2.71,1.99,6.25,2.98,10.62,2.98Z"/>
    <path class="st0" d="M426.62,587.55c-.7,1.13-1.44,1.92-2.22,2.38-.78.46-1.76.69-2.96.69-1.27,0-2.63-.35-4.07-1.06-1.44-.7-3.12-1.5-5.02-2.38-1.9-.88-4.07-1.67-6.5-2.38-2.43-.7-5.3-1.06-8.61-1.06-5.15,0-9.2,1.09-12.16,3.28-2.96,2.19-4.44,5.04-4.44,8.56,0,2.32.75,4.28,2.27,5.87,1.52,1.59,3.52,2.98,6.03,4.17,2.5,1.2,5.34,2.27,8.51,3.22,3.17.95,6.41,1.99,9.72,3.12,3.31,1.13,6.55,2.41,9.72,3.86,3.17,1.44,6.01,3.28,8.51,5.5,2.5,2.22,4.51,4.88,6.02,7.98,1.51,3.1,2.27,6.84,2.27,11.2,0,5.22-.95,10.03-2.85,14.43-1.9,4.41-4.69,8.21-8.35,11.42s-8.19,5.71-13.58,7.5c-5.39,1.8-11.57,2.7-18.55,2.7-3.74,0-7.38-.34-10.94-1.01-3.56-.67-6.98-1.6-10.25-2.8-3.28-1.2-6.31-2.61-9.09-4.23-2.79-1.62-5.23-3.38-7.35-5.29l6.02-9.93c.78-1.2,1.69-2.11,2.75-2.75s2.39-.95,4.02-.95,3.15.46,4.6,1.37c1.44.92,3.12,1.9,5.02,2.96,1.9,1.06,4.14,2.04,6.71,2.96,2.57.92,5.83,1.37,9.78,1.37,3.1,0,5.76-.37,7.98-1.11s4.05-1.71,5.5-2.91c1.44-1.2,2.5-2.59,3.17-4.17.67-1.59,1.01-3.22,1.01-4.91,0-2.54-.76-4.61-2.27-6.24-1.52-1.62-3.52-3.03-6.02-4.23-2.5-1.2-5.35-2.27-8.56-3.22-3.21-.95-6.48-1.99-9.83-3.12-3.35-1.13-6.62-2.45-9.83-3.96-3.21-1.51-6.06-3.43-8.56-5.76-2.5-2.32-4.51-5.18-6.03-8.56s-2.27-7.47-2.27-12.26c0-4.44.88-8.67,2.64-12.68,1.76-4.02,4.35-7.52,7.77-10.52,3.42-2.99,7.68-5.39,12.79-7.19,5.11-1.8,11.01-2.7,17.7-2.7,7.47,0,14.27,1.23,20.4,3.7,6.13,2.47,11.24,5.71,15.32,9.72l-5.92,9.41Z"/>
    <path class="st0" d="M458.22,674.84v-88.78l-9.41-1.48c-2.05-.35-3.68-1.06-4.91-2.11-1.23-1.06-1.85-2.54-1.85-4.44v-10.68h16.17v-8.03c0-6.2.93-11.77,2.8-16.7,1.87-4.93,4.55-9.12,8.03-12.58,3.49-3.45,7.73-6.09,12.74-7.93,5-1.83,10.64-2.75,16.91-2.75,5,0,9.65.67,13.95,2.01l-.53,13.1c-.14,2.05-1.09,3.31-2.85,3.81-1.76.49-3.8.74-6.13.74-3.1,0-5.87.34-8.3,1-2.43.67-4.49,1.83-6.18,3.49-1.69,1.66-2.98,3.84-3.86,6.55-.88,2.71-1.32,6.08-1.32,10.09v7.19h28.22v18.6h-27.37v88.89h-26.11Z"/>
    <path class="st0" d="M571.41,564.72c6.83,0,13.12,1.09,18.86,3.28,5.74,2.19,10.69,5.38,14.85,9.57,4.16,4.19,7.4,9.34,9.72,15.43,2.32,6.09,3.49,13.05,3.49,20.87,0,1.97-.09,3.61-.26,4.91-.18,1.31-.49,2.32-.95,3.07-.46.74-1.08,1.27-1.85,1.58-.78.32-1.76.48-2.96.48h-67.01c.77,11.13,3.77,19.31,8.98,24.52,5.21,5.21,12.12,7.82,20.72,7.82,4.23,0,7.87-.49,10.94-1.48,3.07-.99,5.74-2.08,8.03-3.28,2.29-1.2,4.3-2.29,6.03-3.28,1.72-.99,3.4-1.48,5.02-1.48,1.06,0,1.97.21,2.75.63s1.44,1.02,2.01,1.8l7.61,9.51c-2.89,3.38-6.13,6.22-9.72,8.51-3.59,2.29-7.35,4.12-11.26,5.5-3.91,1.37-7.89,2.34-11.94,2.91-4.05.56-7.98.84-11.78.84-7.54,0-14.55-1.25-21.03-3.75-6.48-2.5-12.12-6.2-16.91-11.1-4.79-4.9-8.56-10.96-11.31-18.18-2.75-7.22-4.12-15.59-4.12-25.1,0-7.4,1.2-14.36,3.59-20.87,2.39-6.52,5.83-12.19,10.3-17.02,4.47-4.82,9.93-8.65,16.38-11.47s13.72-4.23,21.83-4.23ZM571.94,583.42c-7.61,0-13.57,2.15-17.86,6.45-4.3,4.3-7.05,10.39-8.24,18.28h49.04c0-3.38-.46-6.57-1.37-9.56s-2.32-5.62-4.23-7.88c-1.9-2.25-4.3-4.03-7.19-5.34-2.89-1.3-6.27-1.96-10.15-1.96Z"/>
    <path class="st0" d="M638.52,674.84v-108.44h15.33c2.68,0,4.54.49,5.6,1.48s1.76,2.68,2.11,5.07l1.58,13.1c3.87-6.69,8.42-11.98,13.63-15.85,5.21-3.87,11.06-5.81,17.54-5.81,5.35,0,9.79,1.23,13.32,3.7l-3.38,19.55c-.21,1.27-.67,2.17-1.37,2.7-.7.53-1.66.79-2.85.79-1.06,0-2.5-.25-4.33-.74-1.83-.49-4.26-.74-7.29-.74-5.43,0-10.08,1.5-13.95,4.49-3.88,2.99-7.15,7.38-9.83,13.16v67.54h-26.11Z"/>
    <path class="st0" d="M723.81,674.84v-108.44h15.33c2.68,0,4.54.49,5.6,1.48s1.76,2.68,2.11,5.07l1.58,13.1c3.87-6.69,8.42-11.98,13.63-15.85,5.21-3.87,11.06-5.81,17.54-5.81,5.35,0,9.79,1.23,13.32,3.7l-3.38,19.55c-.21,1.27-.67,2.17-1.37,2.7-.7.53-1.66.79-2.85.79-1.06,0-2.5-.25-4.33-.74-1.83-.49-4.26-.74-7.29-.74-5.43,0-10.08,1.5-13.95,4.49-3.88,2.99-7.15,7.38-9.83,13.16v67.54h-26.11Z"/>
    <path class="st0" d="M853.91,564.72c6.83,0,13.12,1.09,18.86,3.28,5.74,2.19,10.69,5.38,14.85,9.57,4.16,4.19,7.4,9.34,9.72,15.43,2.32,6.09,3.49,13.05,3.49,20.87,0,1.97-.09,3.61-.26,4.91-.18,1.31-.49,2.32-.95,3.07-.46.74-1.08,1.27-1.85,1.58-.78.32-1.76.48-2.96.48h-67.01c.77,11.13,3.77,19.31,8.98,24.52,5.21,5.21,12.12,7.82,20.72,7.82,4.23,0,7.87-.49,10.94-1.48,3.07-.99,5.74-2.08,8.03-3.28,2.29-1.2,4.3-2.29,6.03-3.28,1.72-.99,3.4-1.48,5.02-1.48,1.06,0,1.97.21,2.75.63s1.44,1.02,2.01,1.8l7.61,9.51c-2.89,3.38-6.13,6.22-9.72,8.51-3.59,2.29-7.35,4.12-11.26,5.5-3.91,1.37-7.89,2.34-11.94,2.91-4.05.56-7.98.84-11.78.84-7.54,0-14.55-1.25-21.03-3.75-6.48-2.5-12.12-6.2-16.91-11.1-4.79-4.9-8.56-10.96-11.31-18.18-2.75-7.22-4.12-15.59-4.12-25.1,0-7.4,1.2-14.36,3.59-20.87,2.39-6.52,5.83-12.19,10.3-17.02,4.47-4.82,9.93-8.65,16.38-11.47,6.45-2.82,13.72-4.23,21.83-4.23ZM854.44,583.42c-7.61,0-13.57,2.15-17.86,6.45-4.3,4.3-7.05,10.39-8.24,18.28h49.04c0-3.38-.46-6.57-1.37-9.56s-2.32-5.62-4.23-7.88c-1.9-2.25-4.3-4.03-7.19-5.34-2.89-1.3-6.27-1.96-10.15-1.96Z"/>
    <path class="st0" d="M921.02,674.84v-108.44h15.33c2.68,0,4.54.49,5.6,1.48s1.76,2.68,2.11,5.07l1.58,13.1c3.87-6.69,8.42-11.98,13.63-15.85,5.21-3.87,11.06-5.81,17.54-5.81,5.35,0,9.79,1.23,13.32,3.7l-3.38,19.55c-.21,1.27-.67,2.17-1.37,2.7-.7.53-1.66.79-2.85.79-1.06,0-2.5-.25-4.33-.74-1.83-.49-4.26-.74-7.29-.74-5.43,0-10.08,1.5-13.95,4.49-3.88,2.99-7.15,7.38-9.83,13.16v67.54h-26.11Z"/>
    <path class="st1" d="M1062.43,520.33c6.2,0,11.75.95,16.65,2.85,4.9,1.9,9.09,4.44,12.58,7.61,3.49,3.17,6.24,6.8,8.24,10.89,2.01,4.09,3.19,8.32,3.54,12.68l-16.59,3.49c-.21.07-.44.11-.69.11h-.69c-1.2,0-2.27-.33-3.22-1s-1.71-1.71-2.27-3.12c-.63-1.83-1.44-3.57-2.43-5.23-.99-1.65-2.19-3.1-3.59-4.33-1.41-1.23-3.07-2.22-4.97-2.96-1.9-.74-4.09-1.11-6.55-1.11-2.96,0-5.6.51-7.93,1.53-2.33,1.02-4.3,2.4-5.92,4.12-1.62,1.73-2.85,3.74-3.7,6.03-.85,2.29-1.27,4.7-1.27,7.24,0,2.11.23,4.16.69,6.13s1.18,3.95,2.17,5.92c.99,1.97,2.27,4,3.86,6.08,1.59,2.08,3.54,4.32,5.87,6.71l40.58,42.17c2.32-4.44,4.19-9.12,5.6-14.06,1.41-4.93,2.32-9.93,2.75-15.01.14-1.62.67-2.92,1.58-3.91.92-.99,2.18-1.48,3.81-1.48h16.38c-.07,9.3-1.41,18.18-4.02,26.63-2.61,8.46-6.34,16.24-11.2,23.36l32.02,33.19h-25.58c-1.34,0-2.52-.07-3.54-.21-1.02-.14-1.99-.4-2.91-.79-.92-.39-1.8-.9-2.64-1.53-.85-.63-1.73-1.44-2.64-2.43l-10.57-10.89c-6.76,5.5-14.29,9.79-22.56,12.89-8.28,3.1-17.25,4.65-26.9,4.65-5.92,0-11.7-1.01-17.33-3.01-5.64-2.01-10.68-4.91-15.11-8.72-4.44-3.81-8.02-8.4-10.73-13.79-2.71-5.39-4.07-11.47-4.07-18.23,0-4.72.77-9.21,2.32-13.48,1.55-4.26,3.7-8.22,6.45-11.89,2.75-3.66,6.01-6.97,9.78-9.94,3.77-2.96,7.91-5.49,12.42-7.61-3.74-5.29-6.47-10.45-8.19-15.48s-2.59-10.06-2.59-15.06c0-5.28.97-10.3,2.91-15.06s4.76-8.9,8.46-12.42c3.7-3.52,8.23-6.32,13.58-8.4,5.35-2.08,11.41-3.12,18.18-3.12ZM1025.65,630.67c0,3.88.67,7.36,2.01,10.47,1.34,3.1,3.17,5.72,5.5,7.87,2.32,2.15,5.02,3.81,8.08,4.97,3.07,1.16,6.32,1.74,9.78,1.74,6.2,0,11.85-.97,16.96-2.9s9.78-4.63,14-8.09l-40.16-41.22c-5.64,3.66-9.74,7.79-12.31,12.36-2.57,4.58-3.86,9.51-3.86,14.8Z"/>
    <path class="st0" d="M1187.04,621.05v53.8h-28.43v-152.83h49.78c10.21,0,19.06,1.2,26.53,3.59s13.63,5.74,18.5,10.04c4.86,4.3,8.46,9.44,10.78,15.43,2.32,5.99,3.49,12.54,3.49,19.66s-1.23,14.18-3.7,20.35c-2.47,6.17-6.17,11.47-11.1,15.91s-11.1,7.89-18.49,10.36-16.07,3.7-26,3.7h-21.35ZM1187.04,598.85h21.35c5.21,0,9.76-.65,13.63-1.95s7.08-3.17,9.62-5.6c2.54-2.43,4.44-5.39,5.71-8.88,1.27-3.49,1.9-7.38,1.9-11.68s-.64-7.78-1.9-11.1c-1.27-3.31-3.17-6.13-5.71-8.46-2.54-2.32-5.74-4.1-9.62-5.34-3.87-1.23-8.42-1.85-13.63-1.85h-21.35v54.85Z"/>
    <path class="st0" d="M1366.92,674.84h-11.73c-2.47,0-4.41-.37-5.81-1.11-1.41-.74-2.47-2.24-3.17-4.49l-2.32-7.72c-2.75,2.47-5.44,4.64-8.09,6.5-2.64,1.87-5.37,3.43-8.19,4.7-2.82,1.27-5.81,2.22-8.98,2.85-3.17.63-6.7.95-10.57.95-4.58,0-8.81-.62-12.68-1.85-3.88-1.24-7.2-3.09-9.99-5.57-2.78-2.48-4.95-5.55-6.5-9.23-1.55-3.68-2.32-7.95-2.32-12.83,0-4.1,1.07-8.15,3.22-12.14,2.15-3.99,5.72-7.6,10.73-10.81,5-3.22,11.66-5.89,19.98-8.01,8.31-2.12,18.63-3.18,30.97-3.18v-6.39c0-7.31-1.53-12.73-4.6-16.24-3.07-3.51-7.52-5.27-13.37-5.27-4.23,0-7.75.49-10.57,1.48s-5.27,2.1-7.34,3.33c-2.08,1.23-4,2.34-5.76,3.33-1.76.99-3.7,1.48-5.81,1.48-1.76,0-3.28-.46-4.54-1.37-1.27-.92-2.29-2.04-3.07-3.38l-4.76-8.35c12.47-11.41,27.51-17.12,45.13-17.12,6.34,0,12,1.04,16.96,3.12,4.97,2.08,9.18,4.97,12.63,8.67,3.45,3.7,6.08,8.12,7.87,13.26,1.8,5.14,2.7,10.78,2.7,16.91v68.49ZM1316.19,658.57c2.68,0,5.14-.24,7.4-.73,2.25-.49,4.38-1.21,6.4-2.19,2.01-.97,3.95-2.17,5.81-3.59s3.75-3.1,5.65-5.05v-18.15c-7.61,0-13.97.48-19.08,1.44-5.11.96-9.21,2.18-12.31,3.67-3.1,1.49-5.3,3.23-6.61,5.22-1.31,1.99-1.96,4.15-1.96,6.49,0,4.61,1.36,7.92,4.07,9.9,2.71,1.99,6.25,2.98,10.62,2.98Z"/>
    <path class="st0" d="M1391.55,674.84v-108.44h15.33c2.68,0,4.54.49,5.6,1.48s1.76,2.68,2.11,5.07l1.58,13.1c3.87-6.69,8.42-11.98,13.63-15.85,5.21-3.87,11.06-5.81,17.54-5.81,5.35,0,9.79,1.23,13.32,3.7l-3.38,19.55c-.21,1.27-.67,2.17-1.37,2.7-.7.53-1.66.79-2.85.79-1.06,0-2.5-.25-4.33-.74-1.83-.49-4.26-.74-7.29-.74-5.43,0-10.08,1.5-13.95,4.49-3.88,2.99-7.15,7.38-9.83,13.16v67.54h-26.11Z"/>
    <path class="st0" d="M1512.46,676.54c-9.37,0-16.59-2.66-21.67-7.98-5.07-5.32-7.61-12.66-7.61-22.04v-60.56h-10.99c-1.41,0-2.63-.46-3.65-1.37-1.02-.91-1.53-2.29-1.53-4.12v-10.36l17.44-2.85,5.5-29.59c.28-1.41.93-2.5,1.96-3.28,1.02-.78,2.31-1.16,3.86-1.16h13.53v34.14h28.54v18.6h-28.54v58.76c0,3.38.85,6.02,2.54,7.93,1.69,1.9,3.95,2.85,6.76,2.85,1.62,0,2.98-.19,4.07-.58,1.09-.39,2.04-.79,2.85-1.22.81-.42,1.53-.83,2.17-1.22.63-.39,1.27-.58,1.9-.58.78,0,1.41.19,1.9.58.49.39,1.02.97,1.58,1.75l7.82,12.68c-3.81,3.17-8.18,5.57-13.11,7.19s-10.04,2.43-15.32,2.43Z"/>
    <path class="st0" d="M1557.59,674.84v-108.44h15.96c3.38,0,5.6,1.58,6.66,4.76l1.8,8.56c2.18-2.25,4.49-4.3,6.92-6.13,2.43-1.83,5-3.42,7.71-4.76,2.71-1.34,5.62-2.36,8.72-3.07,3.1-.7,6.48-1.06,10.15-1.06,5.92,0,11.17,1.01,15.75,3.01s8.4,4.83,11.47,8.46c3.07,3.63,5.39,7.96,6.97,13,1.59,5.04,2.38,10.59,2.38,16.65v69.01h-26.11v-69.01c0-6.62-1.53-11.75-4.6-15.38s-7.66-5.44-13.79-5.44c-4.51,0-8.74,1.02-12.68,3.07-3.95,2.05-7.68,4.83-11.2,8.35v78.42h-26.11Z"/>
    <path class="st0" d="M1721.51,564.72c6.83,0,13.12,1.09,18.86,3.28,5.74,2.19,10.69,5.38,14.85,9.57,4.16,4.19,7.4,9.34,9.72,15.43,2.32,6.09,3.49,13.05,3.49,20.87,0,1.97-.09,3.61-.26,4.91-.18,1.31-.49,2.32-.95,3.07-.46.74-1.08,1.27-1.85,1.58-.78.32-1.76.48-2.96.48h-67.01c.77,11.13,3.77,19.31,8.98,24.52,5.21,5.21,12.12,7.82,20.72,7.82,4.23,0,7.87-.49,10.94-1.48,3.07-.99,5.74-2.08,8.03-3.28,2.29-1.2,4.3-2.29,6.03-3.28,1.72-.99,3.4-1.48,5.02-1.48,1.06,0,1.97.21,2.75.63s1.44,1.02,2.01,1.8l7.61,9.51c-2.89,3.38-6.13,6.22-9.72,8.51-3.59,2.29-7.35,4.12-11.26,5.5-3.91,1.37-7.89,2.34-11.94,2.91-4.05.56-7.98.84-11.78.84-7.54,0-14.55-1.25-21.03-3.75-6.48-2.5-12.12-6.2-16.91-11.1-4.79-4.9-8.56-10.96-11.31-18.18-2.75-7.22-4.12-15.59-4.12-25.1,0-7.4,1.2-14.36,3.59-20.87,2.39-6.52,5.83-12.19,10.3-17.02,4.47-4.82,9.93-8.65,16.38-11.47,6.45-2.82,13.72-4.23,21.83-4.23ZM1722.04,583.42c-7.61,0-13.57,2.15-17.86,6.45-4.3,4.3-7.05,10.39-8.24,18.28h49.04c0-3.38-.46-6.57-1.37-9.56s-2.32-5.62-4.23-7.88c-1.9-2.25-4.3-4.03-7.19-5.34-2.89-1.3-6.27-1.96-10.15-1.96Z"/>
    <path class="st0" d="M1788.62,674.84v-108.44h15.33c2.68,0,4.54.49,5.6,1.48s1.76,2.68,2.11,5.07l1.58,13.1c3.87-6.69,8.42-11.98,13.63-15.85,5.21-3.87,11.06-5.81,17.54-5.81,5.35,0,9.79,1.23,13.32,3.7l-3.38,19.55c-.21,1.27-.67,2.17-1.37,2.7-.7.53-1.66.79-2.85.79-1.06,0-2.5-.25-4.33-.74-1.83-.49-4.26-.74-7.29-.74-5.43,0-10.08,1.5-13.95,4.49-3.88,2.99-7.15,7.38-9.83,13.16v67.54h-26.11Z"/>
    <path class="st0" d="M1938.27,587.55c-.7,1.13-1.44,1.92-2.22,2.38-.78.46-1.76.69-2.96.69-1.27,0-2.63-.35-4.07-1.06-1.44-.7-3.12-1.5-5.02-2.38-1.9-.88-4.07-1.67-6.5-2.38-2.43-.7-5.3-1.06-8.61-1.06-5.15,0-9.2,1.09-12.16,3.28-2.96,2.19-4.44,5.04-4.44,8.56,0,2.32.75,4.28,2.27,5.87,1.52,1.59,3.52,2.98,6.03,4.17,2.5,1.2,5.34,2.27,8.51,3.22,3.17.95,6.41,1.99,9.72,3.12,3.31,1.13,6.55,2.41,9.72,3.86,3.17,1.44,6.01,3.28,8.51,5.5,2.5,2.22,4.51,4.88,6.02,7.98,1.51,3.1,2.27,6.84,2.27,11.2,0,5.22-.95,10.03-2.85,14.43-1.9,4.41-4.69,8.21-8.35,11.42s-8.19,5.71-13.58,7.5c-5.39,1.8-11.57,2.7-18.55,2.7-3.74,0-7.38-.34-10.94-1.01-3.56-.67-6.98-1.6-10.25-2.8-3.28-1.2-6.31-2.61-9.09-4.23-2.79-1.62-5.23-3.38-7.35-5.29l6.02-9.93c.78-1.2,1.69-2.11,2.75-2.75s2.39-.95,4.02-.95,3.15.46,4.6,1.37c1.44.92,3.12,1.9,5.02,2.96,1.9,1.06,4.14,2.04,6.71,2.96,2.57.92,5.83,1.37,9.78,1.37,3.1,0,5.76-.37,7.98-1.11s4.05-1.71,5.5-2.91c1.44-1.2,2.5-2.59,3.17-4.17.67-1.59,1.01-3.22,1.01-4.91,0-2.54-.76-4.61-2.27-6.24-1.52-1.62-3.52-3.03-6.02-4.23-2.5-1.2-5.35-2.27-8.56-3.22-3.21-.95-6.48-1.99-9.83-3.12-3.35-1.13-6.62-2.45-9.83-3.96-3.21-1.51-6.06-3.43-8.56-5.76-2.5-2.32-4.51-5.18-6.03-8.56s-2.27-7.47-2.27-12.26c0-4.44.88-8.67,2.64-12.68,1.76-4.02,4.35-7.52,7.77-10.52,3.42-2.99,7.68-5.39,12.79-7.19,5.11-1.8,11.01-2.7,17.7-2.7,7.47,0,14.27,1.23,20.4,3.7,6.13,2.47,11.24,5.71,15.32,9.72l-5.92,9.41Z"/>
  </g>
  <g>
    <path class="st2" d="M155.02,804.52c.3,0,.57.11.78.32l1.84,1.97c-1.35,1.44-2.82,2.73-4.41,3.88-1.59,1.15-3.33,2.13-5.21,2.94-1.88.81-3.95,1.44-6.2,1.88s-4.72.67-7.41.67c-4.5,0-8.62-.79-12.37-2.36-3.75-1.57-6.96-3.81-9.64-6.7-2.68-2.89-4.77-6.39-6.27-10.49-1.5-4.1-2.25-8.66-2.25-13.68s.77-9.43,2.32-13.5c1.55-4.07,3.72-7.57,6.52-10.49,2.8-2.92,6.15-5.19,10.05-6.79,3.9-1.61,8.21-2.41,12.92-2.41,2.36,0,4.51.18,6.47.53,1.96.35,3.79.86,5.49,1.52,1.7.66,3.3,1.48,4.8,2.46s2.97,2.11,4.41,3.4l-1.42,2.07c-.25.37-.63.55-1.15.55-.28,0-.63-.16-1.06-.48-.43-.32-.97-.72-1.63-1.19-.66-.47-1.46-.99-2.39-1.56-.93-.57-2.04-1.09-3.33-1.56-1.29-.47-2.77-.87-4.45-1.19s-3.6-.48-5.74-.48c-3.95,0-7.58.68-10.88,2.04s-6.15,3.3-8.54,5.83-4.25,5.59-5.58,9.18c-1.33,3.6-2,7.63-2,12.1s.66,8.69,1.97,12.3,3.14,6.66,5.46,9.16c2.33,2.5,5.07,4.41,8.24,5.74,3.17,1.33,6.6,2,10.31,2,2.32,0,4.4-.15,6.22-.46,1.82-.31,3.5-.77,5.03-1.38,1.53-.61,2.95-1.36,4.27-2.25,1.32-.89,2.62-1.93,3.9-3.12.15-.12.3-.22.44-.3.14-.08.3-.11.48-.11Z"/>
    <path class="st2" d="M189.44,769.03c3.27,0,6.2.56,8.79,1.67,2.59,1.12,4.77,2.7,6.54,4.75,1.77,2.05,3.13,4.52,4.06,7.41.93,2.89,1.4,6.13,1.4,9.71s-.47,6.81-1.4,9.69c-.93,2.88-2.29,5.34-4.06,7.39s-3.96,3.63-6.54,4.73c-2.59,1.1-5.52,1.65-8.79,1.65s-6.21-.55-8.79-1.65c-2.59-1.1-4.77-2.68-6.57-4.73-1.79-2.05-3.15-4.51-4.08-7.39-.93-2.88-1.4-6.11-1.4-9.69s.47-6.82,1.4-9.71c.93-2.89,2.3-5.36,4.08-7.41,1.79-2.05,3.98-3.63,6.57-4.75,2.59-1.12,5.52-1.67,8.79-1.67ZM189.44,812.6c2.72,0,5.1-.47,7.14-1.4,2.04-.93,3.73-2.27,5.1-4.02,1.36-1.74,2.38-3.85,3.05-6.31.67-2.46,1.01-5.23,1.01-8.29s-.34-5.78-1.01-8.26-1.69-4.6-3.05-6.36-3.06-3.11-5.1-4.06-4.41-1.42-7.14-1.42-5.1.48-7.14,1.42-3.73,2.3-5.1,4.06-2.39,3.88-3.08,6.36c-.69,2.48-1.03,5.23-1.03,8.26s.34,5.82,1.03,8.29c.69,2.46,1.71,4.57,3.08,6.31,1.36,1.75,3.06,3.08,5.1,4.02,2.04.93,4.41,1.4,7.14,1.4Z"/>
    <path class="st2" d="M223.55,815.44v-45.68h2.39c.8,0,1.26.38,1.38,1.15l.41,6.89c2.08-2.63,4.51-4.75,7.28-6.36,2.77-1.61,5.85-2.41,9.25-2.41,2.51,0,4.72.4,6.63,1.19,1.91.8,3.5,1.94,4.75,3.44,1.25,1.5,2.2,3.31,2.85,5.42.64,2.11.96,4.5.96,7.16v29.2h-4.36v-29.2c0-4.28-.98-7.64-2.94-10.08-1.96-2.43-4.96-3.65-9-3.65-3,0-5.78.77-8.35,2.32-2.57,1.55-4.87,3.67-6.89,6.36v34.25h-4.36Z"/>
    <path class="st2" d="M300.21,775.46c-.21.43-.55.64-1.01.64-.34,0-.77-.19-1.31-.57-.54-.38-1.24-.81-2.11-1.28-.87-.48-1.94-.9-3.21-1.29-1.27-.38-2.82-.57-4.66-.57-1.65,0-3.16.24-4.52.71s-2.52,1.11-3.49,1.9c-.96.79-1.71,1.72-2.25,2.77-.53,1.05-.8,2.16-.8,3.32,0,1.43.37,2.63,1.1,3.57.73.95,1.7,1.75,2.89,2.42,1.19.67,2.55,1.25,4.06,1.74,1.52.49,3.07.98,4.66,1.47,1.59.49,3.14,1.03,4.66,1.63,1.52.6,2.87,1.34,4.06,2.23,1.19.89,2.16,1.97,2.89,3.26.73,1.28,1.1,2.85,1.1,4.68,0,1.99-.36,3.84-1.08,5.55-.72,1.71-1.76,3.2-3.12,4.45-1.36,1.26-3.04,2.25-5.03,2.98s-4.25,1.1-6.8,1.1c-3.21,0-5.98-.51-8.31-1.54-2.33-1.03-4.41-2.36-6.24-4.02l1.06-1.56c.15-.25.32-.43.5-.55.18-.12.44-.18.78-.18.4,0,.89.24,1.47.73.58.49,1.34,1.02,2.27,1.58.93.57,2.1,1.09,3.49,1.58,1.39.49,3.11.73,5.16.73,1.93,0,3.63-.27,5.09-.8,1.47-.54,2.69-1.26,3.67-2.18.98-.92,1.72-2,2.22-3.24.51-1.24.76-2.55.76-3.92,0-1.53-.37-2.8-1.1-3.81-.73-1.01-1.7-1.87-2.89-2.57-1.19-.7-2.55-1.3-4.06-1.79-1.52-.49-3.08-.98-4.68-1.47-1.61-.49-3.17-1.02-4.68-1.61-1.52-.58-2.87-1.32-4.06-2.2-1.19-.89-2.16-1.97-2.89-3.24s-1.1-2.85-1.1-4.75c0-1.62.35-3.18,1.06-4.68.7-1.5,1.71-2.81,3.01-3.95s2.88-2.04,4.75-2.71c1.87-.67,3.96-1.01,6.29-1.01,2.78,0,5.26.4,7.41,1.21,2.16.81,4.14,2.04,5.94,3.7l-.97,1.51Z"/>
    <path class="st2" d="M319.58,769.77v29.2c0,4.28.98,7.64,2.95,10.08,1.96,2.43,4.96,3.65,8.98,3.65,2.98,0,5.76-.76,8.34-2.27,2.58-1.51,4.9-3.62,6.96-6.31v-34.34h4.36v45.68h-2.4c-.85,0-1.28-.4-1.32-1.19l-.41-6.8c-2.11,2.63-4.56,4.74-7.33,6.33-2.77,1.59-5.86,2.39-9.26,2.39-2.54,0-4.76-.4-6.66-1.19-1.9-.8-3.48-1.94-4.74-3.44s-2.21-3.31-2.85-5.42c-.64-2.11-.97-4.5-.97-7.16v-29.2h4.36Z"/>
    <path class="st2" d="M373.52,748.65v66.79h-4.36v-66.79h4.36Z"/>
    <path class="st2" d="M403.95,816.18c-3.09,0-5.49-.85-7.21-2.57-1.71-1.71-2.57-4.36-2.57-7.94v-31.22h-6.57c-.34,0-.61-.09-.83-.28-.21-.18-.32-.44-.32-.78v-1.7l7.8-.55,1.09-16.34c.03-.28.14-.52.34-.73.2-.21.46-.32.8-.32h2.04v17.45h14.37v3.26h-14.37v30.99c0,1.26.16,2.33.48,3.24s.77,1.65,1.33,2.22c.57.58,1.23,1.01,2,1.29s1.59.41,2.48.41c1.1,0,2.05-.16,2.85-.48s1.48-.67,2.07-1.06c.58-.38,1.06-.73,1.42-1.06.37-.32.66-.48.87-.48.24,0,.49.15.73.46l1.19,1.93c-1.16,1.28-2.64,2.32-4.43,3.1-1.79.78-3.65,1.17-5.58,1.17Z"/>
    <path class="st2" d="M443.48,769.03c3.27,0,6.2.56,8.79,1.67,2.59,1.12,4.77,2.7,6.54,4.75,1.77,2.05,3.13,4.52,4.06,7.41.93,2.89,1.4,6.13,1.4,9.71s-.47,6.81-1.4,9.69c-.93,2.88-2.29,5.34-4.06,7.39s-3.96,3.63-6.54,4.73c-2.59,1.1-5.52,1.65-8.79,1.65s-6.21-.55-8.79-1.65c-2.59-1.1-4.77-2.68-6.57-4.73-1.79-2.05-3.15-4.51-4.08-7.39-.93-2.88-1.4-6.11-1.4-9.69s.47-6.82,1.4-9.71c.93-2.89,2.3-5.36,4.08-7.41,1.79-2.05,3.98-3.63,6.57-4.75,2.59-1.12,5.52-1.67,8.79-1.67ZM443.48,812.6c2.72,0,5.1-.47,7.14-1.4,2.04-.93,3.73-2.27,5.1-4.02,1.36-1.74,2.38-3.85,3.05-6.31.67-2.46,1.01-5.23,1.01-8.29s-.34-5.78-1.01-8.26-1.69-4.6-3.05-6.36-3.06-3.11-5.1-4.06-4.41-1.42-7.14-1.42-5.1.48-7.14,1.42-3.73,2.3-5.1,4.06-2.39,3.88-3.08,6.36c-.69,2.48-1.03,5.23-1.03,8.26s.34,5.82,1.03,8.29c.69,2.46,1.71,4.57,3.08,6.31,1.36,1.75,3.06,3.08,5.1,4.02,2.04.93,4.41,1.4,7.14,1.4Z"/>
    <path class="st2" d="M477.58,815.44v-45.68h2.29c.52,0,.9.11,1.13.32.23.21.36.58.39,1.1l.37,9.64c1.47-3.7,3.43-6.6,5.88-8.7s5.46-3.14,9.04-3.14c1.38,0,2.65.15,3.81.44,1.16.29,2.26.71,3.3,1.26l-.6,3.03c-.09.49-.4.74-.92.74-.18,0-.44-.06-.78-.18-.34-.12-.76-.26-1.26-.41-.5-.15-1.12-.29-1.86-.41-.73-.12-1.58-.18-2.53-.18-3.46,0-6.3,1.07-8.52,3.21-2.22,2.14-4.02,5.23-5.39,9.27v29.7h-4.36Z"/>
    <path class="st2" d="M529.78,749.75l-9.91,11.61c-.25.31-.5.51-.76.62-.26.11-.57.16-.94.16h-2.62l7.21-10.92c.34-.55.69-.93,1.06-1.15.37-.21.92-.32,1.65-.32h4.31ZM521.52,769.77v45.68h-4.36v-45.68h4.36Z"/>
    <path class="st2" d="M568.66,815.44c-.92,0-1.48-.43-1.7-1.28l-.64-5.83c-1.26,1.22-2.5,2.32-3.74,3.3-1.24.98-2.53,1.81-3.88,2.48s-2.8,1.19-4.36,1.54c-1.56.35-3.28.53-5.14.53-1.56,0-3.08-.23-4.55-.69-1.47-.46-2.77-1.16-3.9-2.11-1.13-.95-2.04-2.16-2.73-3.65s-1.03-3.27-1.03-5.35c0-1.93.55-3.72,1.65-5.37,1.1-1.65,2.82-3.09,5.16-4.31s5.35-2.2,9.04-2.94c3.69-.74,8.12-1.16,13.29-1.29v-4.77c0-4.22-.91-7.48-2.73-9.76-1.82-2.28-4.52-3.42-8.1-3.42-2.2,0-4.08.31-5.62.92-1.55.61-2.85,1.29-3.92,2.02-1.07.73-1.94,1.41-2.62,2.02s-1.24.92-1.7.92c-.61,0-1.07-.28-1.38-.83l-.78-1.33c2.39-2.39,4.9-4.19,7.53-5.42,2.63-1.22,5.62-1.83,8.95-1.83,2.45,0,4.59.39,6.43,1.17,1.84.78,3.36,1.9,4.57,3.35,1.21,1.46,2.12,3.22,2.73,5.28.61,2.07.92,4.37.92,6.91v29.75h-1.74ZM550.3,813.01c1.77,0,3.4-.19,4.89-.57,1.48-.38,2.86-.92,4.13-1.61,1.27-.69,2.46-1.51,3.56-2.45,1.1-.95,2.19-1.97,3.26-3.08v-11.89c-4.35.12-8.09.45-11.22.99-3.14.54-5.72,1.26-7.76,2.18-2.04.92-3.53,2.01-4.5,3.28-.97,1.27-1.45,2.71-1.45,4.34,0,1.53.25,2.85.76,3.97.51,1.12,1.17,2.04,2,2.75.83.72,1.79,1.25,2.89,1.58,1.1.34,2.25.5,3.44.5Z"/>
    <path class="st2" d="M615.53,830.13c-.18.43-.42.78-.71,1.06-.29.28-.71.41-1.26.41h-3.12l8.03-17.86-19.33-43.98h3.63c.46,0,.82.11,1.08.34s.45.48.57.76l15.38,35.53c.18.46.34.93.48,1.4.14.48.27.96.39,1.45.15-.49.31-.97.48-1.45.17-.47.34-.94.53-1.4l15.2-35.53c.15-.34.37-.6.64-.8.28-.2.58-.3.92-.3h3.35l-26.26,60.37Z"/>
    <path class="st2" d="M701.74,775.87c-.15.15-.3.28-.44.39-.14.11-.33.16-.57.16-.31,0-.73-.21-1.26-.62s-1.25-.86-2.13-1.35c-.89-.49-2-.94-3.33-1.36-1.33-.41-2.94-.62-4.84-.62-2.63,0-4.97.47-7,1.4-2.04.93-3.75,2.27-5.14,4.02s-2.45,3.86-3.19,6.33c-.73,2.48-1.1,5.26-1.1,8.36s.38,6.06,1.12,8.54c.75,2.48,1.81,4.57,3.19,6.27,1.38,1.7,3.05,2.99,5,3.88,1.96.89,4.13,1.33,6.52,1.33,2.2,0,4.05-.26,5.53-.78,1.48-.52,2.71-1.09,3.67-1.7.96-.61,1.73-1.18,2.29-1.7.57-.52,1.02-.78,1.36-.78.4,0,.7.15.92.46l1.19,1.47c-.7.92-1.59,1.77-2.66,2.57-1.07.8-2.28,1.48-3.63,2.07-1.35.58-2.81,1.03-4.38,1.35s-3.22.48-4.94.48c-2.91,0-5.56-.53-7.97-1.58-2.4-1.06-4.47-2.59-6.2-4.59-1.73-2-3.08-4.46-4.04-7.37-.96-2.91-1.45-6.21-1.45-9.91,0-3.49.46-6.67,1.38-9.55.92-2.88,2.26-5.36,4.02-7.44s3.92-3.69,6.47-4.84c2.55-1.15,5.48-1.72,8.79-1.72,2.97,0,5.61.48,7.92,1.42,2.31.95,4.32,2.24,6.04,3.86l-1.15,1.56Z"/>
    <path class="st2" d="M732.68,769.03c3.27,0,6.2.56,8.79,1.67,2.59,1.12,4.77,2.7,6.54,4.75,1.77,2.05,3.13,4.52,4.06,7.41.93,2.89,1.4,6.13,1.4,9.71s-.47,6.81-1.4,9.69c-.93,2.88-2.29,5.34-4.06,7.39s-3.96,3.63-6.54,4.73c-2.59,1.1-5.52,1.65-8.79,1.65s-6.21-.55-8.79-1.65c-2.59-1.1-4.77-2.68-6.57-4.73-1.79-2.05-3.15-4.51-4.08-7.39-.93-2.88-1.4-6.11-1.4-9.69s.47-6.82,1.4-9.71c.93-2.89,2.3-5.36,4.08-7.41,1.79-2.05,3.98-3.63,6.57-4.75,2.59-1.12,5.52-1.67,8.79-1.67ZM732.68,812.6c2.72,0,5.1-.47,7.14-1.4,2.04-.93,3.73-2.27,5.1-4.02,1.36-1.74,2.38-3.85,3.05-6.31.67-2.46,1.01-5.23,1.01-8.29s-.34-5.78-1.01-8.26-1.69-4.6-3.05-6.36-3.06-3.11-5.1-4.06-4.41-1.42-7.14-1.42-5.1.48-7.14,1.42-3.73,2.3-5.1,4.06-2.39,3.88-3.08,6.36c-.69,2.48-1.03,5.23-1.03,8.26s.34,5.82,1.03,8.29c.69,2.46,1.71,4.57,3.08,6.31,1.36,1.75,3.06,3.08,5.1,4.02,2.04.93,4.41,1.4,7.14,1.4Z"/>
    <path class="st2" d="M766.78,815.44v-45.68h2.39c.8,0,1.26.38,1.38,1.15l.41,6.89c2.08-2.63,4.51-4.75,7.28-6.36,2.77-1.61,5.85-2.41,9.25-2.41,2.51,0,4.72.4,6.63,1.19,1.91.8,3.5,1.94,4.75,3.44,1.25,1.5,2.2,3.31,2.85,5.42.64,2.11.96,4.5.96,7.16v29.2h-4.36v-29.2c0-4.28-.98-7.64-2.94-10.08-1.96-2.43-4.96-3.65-9-3.65-3,0-5.78.77-8.35,2.32-2.57,1.55-4.87,3.67-6.89,6.36v34.25h-4.36Z"/>
    <path class="st2" d="M830.73,816.18c-3.09,0-5.49-.85-7.21-2.57-1.71-1.71-2.57-4.36-2.57-7.94v-31.22h-6.57c-.34,0-.61-.09-.83-.28-.21-.18-.32-.44-.32-.78v-1.7l7.8-.55,1.09-16.34c.03-.28.14-.52.34-.73.2-.21.46-.32.8-.32h2.04v17.45h14.37v3.26h-14.37v30.99c0,1.26.16,2.33.48,3.24s.77,1.65,1.33,2.22c.57.58,1.23,1.01,2,1.29s1.59.41,2.48.41c1.1,0,2.05-.16,2.85-.48s1.48-.67,2.07-1.06c.58-.38,1.06-.73,1.42-1.06.37-.32.66-.48.87-.48.24,0,.49.15.73.46l1.19,1.93c-1.16,1.28-2.64,2.32-4.43,3.1-1.79.78-3.65,1.17-5.58,1.17Z"/>
    <path class="st2" d="M852.86,815.44v-45.68h2.29c.52,0,.9.11,1.13.32.23.21.36.58.39,1.1l.37,9.64c1.47-3.7,3.43-6.6,5.88-8.7s5.46-3.14,9.04-3.14c1.38,0,2.65.15,3.81.44,1.16.29,2.26.71,3.3,1.26l-.6,3.03c-.09.49-.4.74-.92.74-.18,0-.44-.06-.78-.18-.34-.12-.76-.26-1.26-.41-.5-.15-1.12-.29-1.86-.41-.73-.12-1.58-.18-2.53-.18-3.46,0-6.3,1.07-8.52,3.21-2.22,2.14-4.02,5.23-5.39,9.27v29.7h-4.36Z"/>
    <path class="st2" d="M908.54,769.03c3.27,0,6.2.56,8.79,1.67,2.59,1.12,4.77,2.7,6.54,4.75,1.77,2.05,3.13,4.52,4.06,7.41.93,2.89,1.4,6.13,1.4,9.71s-.47,6.81-1.4,9.69c-.93,2.88-2.29,5.34-4.06,7.39s-3.96,3.63-6.54,4.73c-2.59,1.1-5.52,1.65-8.79,1.65s-6.21-.55-8.79-1.65c-2.59-1.1-4.77-2.68-6.57-4.73-1.79-2.05-3.15-4.51-4.08-7.39-.93-2.88-1.4-6.11-1.4-9.69s.47-6.82,1.4-9.71c.93-2.89,2.3-5.36,4.08-7.41,1.79-2.05,3.98-3.63,6.57-4.75,2.59-1.12,5.52-1.67,8.79-1.67ZM908.54,812.6c2.72,0,5.1-.47,7.14-1.4,2.04-.93,3.73-2.27,5.1-4.02,1.36-1.74,2.38-3.85,3.05-6.31.67-2.46,1.01-5.23,1.01-8.29s-.34-5.78-1.01-8.26-1.69-4.6-3.05-6.36-3.06-3.11-5.1-4.06-4.41-1.42-7.14-1.42-5.1.48-7.14,1.42-3.73,2.3-5.1,4.06-2.39,3.88-3.08,6.36c-.69,2.48-1.03,5.23-1.03,8.26s.34,5.82,1.03,8.29c.69,2.46,1.71,4.57,3.08,6.31,1.36,1.75,3.06,3.08,5.1,4.02,2.04.93,4.41,1.4,7.14,1.4Z"/>
    <path class="st2" d="M948.29,748.65v66.79h-4.36v-66.79h4.36Z"/>
    <path class="st2" d="M1018.23,815.44c-.76,0-1.19-.4-1.32-1.19l-.46-7.21c-2.02,2.75-4.39,4.94-7.1,6.56-2.71,1.62-5.75,2.43-9.12,2.43-5.61,0-9.98-1.94-13.12-5.83-3.14-3.89-4.71-9.72-4.71-17.49,0-3.34.44-6.45,1.31-9.34s2.16-5.4,3.86-7.53c1.7-2.13,3.78-3.8,6.25-5.03,2.47-1.22,5.31-1.83,8.53-1.83s5.78.57,8.04,1.72c2.27,1.15,4.23,2.82,5.88,5.03v-27.08h4.36v66.79h-2.4ZM1001.47,812.51c3.03,0,5.78-.78,8.23-2.34,2.45-1.56,4.64-3.73,6.57-6.52v-24.1c-1.78-2.6-3.73-4.44-5.86-5.51-2.13-1.07-4.55-1.61-7.24-1.61s-5.06.49-7.08,1.47c-2.02.98-3.72,2.36-5.08,4.15s-2.39,3.93-3.08,6.43c-.69,2.5-1.03,5.24-1.03,8.24,0,6.79,1.26,11.79,3.77,14.99,2.51,3.2,6.12,4.8,10.81,4.8Z"/>
    <path class="st2" d="M1055.02,769.03c2.57,0,4.95.44,7.14,1.33,2.19.89,4.09,2.18,5.69,3.88,1.61,1.7,2.86,3.79,3.76,6.27s1.36,5.33,1.36,8.54c0,.67-.1,1.13-.3,1.38-.2.25-.51.37-.94.37h-32.96v.87c0,3.43.4,6.44,1.19,9.04.8,2.6,1.93,4.78,3.4,6.54,1.47,1.76,3.24,3.08,5.32,3.97,2.08.89,4.41,1.33,6.98,1.33,2.3,0,4.28-.25,5.97-.76s3.1-1.07,4.25-1.7c1.15-.63,2.06-1.19,2.73-1.7.67-.51,1.16-.76,1.47-.76.4,0,.7.15.92.46l1.19,1.47c-.74.92-1.71,1.77-2.91,2.57-1.21.8-2.56,1.48-4.04,2.04-1.48.57-3.08,1.02-4.77,1.35-1.7.34-3.4.5-5.12.5-3.12,0-5.97-.54-8.54-1.63-2.57-1.09-4.78-2.67-6.62-4.75s-3.27-4.63-4.27-7.64c-1.01-3.01-1.51-6.46-1.51-10.35,0-3.28.47-6.3,1.4-9.07.93-2.77,2.28-5.16,4.04-7.16,1.76-2,3.92-3.57,6.47-4.71,2.55-1.13,5.45-1.7,8.7-1.7ZM1055.09,772.29c-2.35,0-4.46.37-6.33,1.1-1.86.74-3.48,1.79-4.84,3.17-1.36,1.38-2.46,3.03-3.3,4.96-.84,1.93-1.4,4.09-1.67,6.47h30.07c0-2.45-.34-4.64-1.01-6.59-.67-1.94-1.62-3.59-2.84-4.94-1.22-1.34-2.69-2.38-4.4-3.1-1.71-.72-3.61-1.08-5.68-1.08Z"/>
    <path class="st2" d="M1121.17,768.99c1.99,0,3.83.24,5.53.73,1.7.49,3.22,1.18,4.57,2.07h11.71v1.51c0,.77-.43,1.18-1.28,1.24l-6.93.5c.85,1.16,1.51,2.47,1.97,3.92.46,1.46.69,3.01.69,4.66,0,2.2-.4,4.2-1.19,5.99s-1.91,3.32-3.33,4.59c-1.42,1.27-3.13,2.26-5.12,2.96-1.99.7-4.19,1.06-6.61,1.06-2.63,0-5.02-.4-7.16-1.19-1.28.73-2.29,1.61-3.03,2.61-.73,1.01-1.1,1.99-1.1,2.94,0,1.32.46,2.32,1.38,3.03.92.7,2.14,1.22,3.65,1.54,1.51.32,3.24.53,5.19.62s3.92.19,5.92.3c2,.11,3.98.3,5.92.58,1.94.28,3.67.76,5.19,1.44,1.52.69,2.73,1.65,3.65,2.89.92,1.24,1.38,2.88,1.38,4.94,0,1.9-.48,3.72-1.42,5.46-.95,1.74-2.32,3.29-4.11,4.64-1.79,1.35-3.96,2.42-6.5,3.24-2.54.81-5.39,1.22-8.54,1.22s-6.03-.33-8.45-.99c-2.42-.66-4.45-1.55-6.08-2.66-1.64-1.12-2.87-2.41-3.69-3.88-.83-1.47-1.24-3.03-1.24-4.68,0-2.42.8-4.5,2.39-6.24,1.59-1.75,3.78-3.09,6.56-4.04-1.53-.52-2.75-1.27-3.65-2.25-.9-.98-1.35-2.34-1.35-4.08,0-.64.12-1.32.37-2.02.24-.7.61-1.4,1.1-2.09.49-.69,1.08-1.34,1.77-1.95.69-.61,1.49-1.16,2.41-1.65-2.17-1.25-3.87-2.92-5.07-5-1.21-2.08-1.81-4.51-1.81-7.3,0-2.2.39-4.2,1.17-5.99.78-1.79,1.88-3.33,3.3-4.61,1.42-1.28,3.14-2.28,5.16-2.98,2.02-.7,4.25-1.06,6.7-1.06ZM1138.11,818.52c0-1.44-.38-2.59-1.13-3.47-.75-.87-1.75-1.55-3.01-2.04-1.26-.49-2.7-.83-4.34-1.03-1.64-.2-3.35-.34-5.14-.44s-3.59-.18-5.39-.28-3.49-.28-5.05-.55c-1.16.46-2.24.99-3.24,1.58s-1.84,1.27-2.55,2.02c-.7.75-1.26,1.57-1.65,2.48-.4.9-.6,1.89-.6,2.96,0,1.34.34,2.59,1.03,3.74.69,1.15,1.7,2.14,3.03,2.98,1.33.84,2.96,1.51,4.89,2,1.93.49,4.15.73,6.66.73,2.32,0,4.49-.26,6.5-.78,2-.52,3.75-1.26,5.23-2.2s2.65-2.08,3.49-3.4c.84-1.32,1.26-2.75,1.26-4.32ZM1121.17,795.24c1.96,0,3.7-.28,5.23-.85,1.53-.57,2.81-1.36,3.86-2.36,1.04-1.01,1.83-2.22,2.36-3.63.53-1.41.8-2.97.8-4.68s-.28-3.28-.83-4.71c-.55-1.42-1.36-2.64-2.41-3.65s-2.34-1.79-3.86-2.34c-1.52-.55-3.24-.83-5.16-.83s-3.66.28-5.19.83-2.82,1.33-3.88,2.34c-1.06,1.01-1.86,2.23-2.41,3.65-.55,1.42-.83,2.99-.83,4.71s.28,3.28.83,4.68,1.35,2.61,2.41,3.63c1.06,1.01,2.35,1.8,3.88,2.36,1.53.57,3.26.85,5.19.85Z"/>
    <path class="st2" d="M1171.48,769.03c2.57,0,4.95.44,7.14,1.33,2.19.89,4.09,2.18,5.69,3.88,1.61,1.7,2.86,3.79,3.76,6.27s1.36,5.33,1.36,8.54c0,.67-.1,1.13-.3,1.38-.2.25-.51.37-.94.37h-32.96v.87c0,3.43.4,6.44,1.19,9.04.8,2.6,1.93,4.78,3.4,6.54,1.47,1.76,3.24,3.08,5.32,3.97,2.08.89,4.41,1.33,6.98,1.33,2.3,0,4.28-.25,5.97-.76s3.1-1.07,4.25-1.7c1.15-.63,2.06-1.19,2.73-1.7.67-.51,1.16-.76,1.47-.76.4,0,.7.15.92.46l1.19,1.47c-.74.92-1.71,1.77-2.91,2.57-1.21.8-2.56,1.48-4.04,2.04-1.48.57-3.08,1.02-4.77,1.35-1.7.34-3.4.5-5.12.5-3.12,0-5.97-.54-8.54-1.63-2.57-1.09-4.78-2.67-6.62-4.75s-3.27-4.63-4.27-7.64c-1.01-3.01-1.51-6.46-1.51-10.35,0-3.28.47-6.3,1.4-9.07.93-2.77,2.28-5.16,4.04-7.16,1.76-2,3.92-3.57,6.47-4.71,2.55-1.13,5.45-1.7,8.7-1.7ZM1171.54,772.29c-2.35,0-4.46.37-6.33,1.1-1.86.74-3.48,1.79-4.84,3.17-1.36,1.38-2.46,3.03-3.3,4.96-.84,1.93-1.4,4.09-1.67,6.47h30.07c0-2.45-.34-4.64-1.01-6.59-.67-1.94-1.62-3.59-2.84-4.94-1.22-1.34-2.69-2.38-4.4-3.1-1.71-.72-3.61-1.08-5.68-1.08Z"/>
    <path class="st2" d="M1228.17,775.46c-.21.43-.55.64-1.01.64-.34,0-.77-.19-1.31-.57-.54-.38-1.24-.81-2.11-1.28-.87-.48-1.94-.9-3.21-1.29-1.27-.38-2.82-.57-4.66-.57-1.65,0-3.16.24-4.52.71s-2.52,1.11-3.49,1.9c-.96.79-1.71,1.72-2.25,2.77-.53,1.05-.8,2.16-.8,3.32,0,1.43.37,2.63,1.1,3.57.73.95,1.7,1.75,2.89,2.42,1.19.67,2.55,1.25,4.06,1.74,1.52.49,3.07.98,4.66,1.47,1.59.49,3.14,1.03,4.66,1.63,1.52.6,2.87,1.34,4.06,2.23,1.19.89,2.16,1.97,2.89,3.26.73,1.28,1.1,2.85,1.1,4.68,0,1.99-.36,3.84-1.08,5.55-.72,1.71-1.76,3.2-3.12,4.45-1.36,1.26-3.04,2.25-5.03,2.98s-4.25,1.1-6.8,1.1c-3.21,0-5.98-.51-8.31-1.54-2.33-1.03-4.41-2.36-6.24-4.02l1.06-1.56c.15-.25.32-.43.5-.55.18-.12.44-.18.78-.18.4,0,.89.24,1.47.73.58.49,1.34,1.02,2.27,1.58.93.57,2.1,1.09,3.49,1.58,1.39.49,3.11.73,5.16.73,1.93,0,3.63-.27,5.09-.8,1.47-.54,2.69-1.26,3.67-2.18.98-.92,1.72-2,2.22-3.24.51-1.24.76-2.55.76-3.92,0-1.53-.37-2.8-1.1-3.81-.73-1.01-1.7-1.87-2.89-2.57-1.19-.7-2.55-1.3-4.06-1.79-1.52-.49-3.08-.98-4.68-1.47-1.61-.49-3.17-1.02-4.68-1.61-1.52-.58-2.87-1.32-4.06-2.2-1.19-.89-2.16-1.97-2.89-3.24s-1.1-2.85-1.1-4.75c0-1.62.35-3.18,1.06-4.68.7-1.5,1.71-2.81,3.01-3.95s2.88-2.04,4.75-2.71c1.87-.67,3.96-1.01,6.29-1.01,2.78,0,5.26.4,7.41,1.21,2.16.81,4.14,2.04,5.94,3.7l-.97,1.51Z"/>
    <path class="st2" d="M1256.77,816.18c-3.09,0-5.49-.85-7.21-2.57-1.71-1.71-2.57-4.36-2.57-7.94v-31.22h-6.57c-.34,0-.61-.09-.83-.28-.21-.18-.32-.44-.32-.78v-1.7l7.8-.55,1.09-16.34c.03-.28.14-.52.34-.73.2-.21.46-.32.8-.32h2.04v17.45h14.37v3.26h-14.37v30.99c0,1.26.16,2.33.48,3.24s.77,1.65,1.33,2.22c.57.58,1.23,1.01,2,1.29s1.59.41,2.48.41c1.1,0,2.05-.16,2.85-.48s1.48-.67,2.07-1.06c.58-.38,1.06-.73,1.42-1.06.37-.32.66-.48.87-.48.24,0,.49.15.73.46l1.19,1.93c-1.16,1.28-2.64,2.32-4.43,3.1-1.79.78-3.65,1.17-5.58,1.17Z"/>
    <path class="st2" d="M1286.47,754.02c0,.55-.11,1.06-.34,1.54-.23.48-.53.89-.89,1.26-.37.37-.8.66-1.29.87s-1.01.32-1.56.32-1.07-.11-1.56-.32-.92-.5-1.28-.87c-.37-.37-.66-.79-.87-1.26-.21-.47-.32-.99-.32-1.54s.11-1.08.32-1.58c.21-.5.5-.94.87-1.31.37-.37.79-.66,1.28-.87.49-.21,1.01-.32,1.56-.32s1.07.11,1.56.32c.49.21.92.5,1.29.87.37.37.67.8.89,1.31s.34,1.03.34,1.58ZM1284.54,769.77v45.68h-4.36v-45.68h4.36Z"/>
    <path class="st2" d="M1319.93,769.03c3.27,0,6.2.56,8.79,1.67,2.59,1.12,4.77,2.7,6.54,4.75,1.77,2.05,3.13,4.52,4.06,7.41.93,2.89,1.4,6.13,1.4,9.71s-.47,6.81-1.4,9.69c-.93,2.88-2.29,5.34-4.06,7.39s-3.96,3.63-6.54,4.73c-2.59,1.1-5.52,1.65-8.79,1.65s-6.21-.55-8.79-1.65c-2.59-1.1-4.77-2.68-6.57-4.73-1.79-2.05-3.15-4.51-4.08-7.39-.93-2.88-1.4-6.11-1.4-9.69s.47-6.82,1.4-9.71c.93-2.89,2.3-5.36,4.08-7.41,1.79-2.05,3.98-3.63,6.57-4.75,2.59-1.12,5.52-1.67,8.79-1.67ZM1319.93,812.6c2.72,0,5.1-.47,7.14-1.4,2.04-.93,3.73-2.27,5.1-4.02,1.36-1.74,2.38-3.85,3.05-6.31.67-2.46,1.01-5.23,1.01-8.29s-.34-5.78-1.01-8.26-1.69-4.6-3.05-6.36-3.06-3.11-5.1-4.06-4.41-1.42-7.14-1.42-5.1.48-7.14,1.42-3.73,2.3-5.1,4.06-2.39,3.88-3.08,6.36c-.69,2.48-1.03,5.23-1.03,8.26s.34,5.82,1.03,8.29c.69,2.46,1.71,4.57,3.08,6.31,1.36,1.75,3.06,3.08,5.1,4.02,2.04.93,4.41,1.4,7.14,1.4ZM1330.31,749.75l-9.91,11.61c-.25.31-.5.51-.76.62-.26.11-.58.16-.94.16h-2.62l7.21-10.92c.34-.55.69-.93,1.06-1.15.37-.21.92-.32,1.65-.32h4.31Z"/>
    <path class="st2" d="M1354.04,815.44v-45.68h2.39c.8,0,1.26.38,1.38,1.15l.41,6.89c2.08-2.63,4.51-4.75,7.28-6.36,2.77-1.61,5.85-2.41,9.25-2.41,2.51,0,4.72.4,6.63,1.19,1.91.8,3.5,1.94,4.75,3.44,1.25,1.5,2.2,3.31,2.85,5.42.64,2.11.96,4.5.96,7.16v29.2h-4.36v-29.2c0-4.28-.98-7.64-2.94-10.08-1.96-2.43-4.96-3.65-9-3.65-3,0-5.78.77-8.35,2.32-2.57,1.55-4.87,3.67-6.89,6.36v34.25h-4.36Z"/>
    <path class="st2" d="M1442.31,769.03c2.57,0,4.95.44,7.14,1.33,2.19.89,4.09,2.18,5.69,3.88,1.61,1.7,2.86,3.79,3.76,6.27s1.36,5.33,1.36,8.54c0,.67-.1,1.13-.3,1.38-.2.25-.51.37-.94.37h-32.96v.87c0,3.43.4,6.44,1.19,9.04.8,2.6,1.93,4.78,3.4,6.54,1.47,1.76,3.24,3.08,5.32,3.97,2.08.89,4.41,1.33,6.98,1.33,2.3,0,4.28-.25,5.97-.76s3.1-1.07,4.25-1.7c1.15-.63,2.06-1.19,2.73-1.7.67-.51,1.16-.76,1.47-.76.4,0,.7.15.92.46l1.19,1.47c-.74.92-1.71,1.77-2.91,2.57-1.21.8-2.56,1.48-4.04,2.04-1.48.57-3.08,1.02-4.77,1.35-1.7.34-3.4.5-5.12.5-3.12,0-5.97-.54-8.54-1.63-2.57-1.09-4.78-2.67-6.62-4.75s-3.27-4.63-4.27-7.64c-1.01-3.01-1.51-6.46-1.51-10.35,0-3.28.47-6.3,1.4-9.07.93-2.77,2.28-5.16,4.04-7.16,1.76-2,3.92-3.57,6.47-4.71,2.55-1.13,5.45-1.7,8.7-1.7ZM1442.38,772.29c-2.35,0-4.46.37-6.33,1.1-1.86.74-3.48,1.79-4.84,3.17-1.36,1.38-2.46,3.03-3.3,4.96-.84,1.93-1.4,4.09-1.67,6.47h30.07c0-2.45-.34-4.64-1.01-6.59-.67-1.94-1.62-3.59-2.84-4.94-1.22-1.34-2.69-2.38-4.4-3.1-1.71-.72-3.61-1.08-5.68-1.08Z"/>
    <path class="st2" d="M1473.85,815.44v-45.68h2.39c.8,0,1.26.38,1.38,1.15l.41,6.61c.89-1.26,1.84-2.4,2.85-3.44s2.09-1.94,3.24-2.69c1.15-.75,2.37-1.33,3.67-1.75s2.67-.62,4.11-.62c3.33,0,6,.97,7.99,2.91,1.99,1.94,3.33,4.64,4.04,8.1.55-1.9,1.32-3.54,2.31-4.91.99-1.38,2.13-2.52,3.42-3.42,1.28-.9,2.68-1.58,4.19-2.02,1.51-.44,3.06-.67,4.65-.67,2.26,0,4.29.38,6.1,1.12,1.8.75,3.34,1.86,4.61,3.33,1.27,1.47,2.24,3.28,2.91,5.42.67,2.14,1.01,4.59,1.01,7.35v29.2h-4.36v-29.2c0-4.47-.97-7.87-2.89-10.21-1.93-2.34-4.68-3.51-8.26-3.51-1.59,0-3.12.29-4.57.87-1.45.58-2.74,1.45-3.86,2.59-1.12,1.15-2.01,2.58-2.66,4.29-.66,1.71-.99,3.7-.99,5.97v29.2h-4.36v-29.2c0-4.44-.89-7.83-2.66-10.19-1.77-2.36-4.36-3.53-7.76-3.53-2.48,0-4.77.74-6.89,2.23s-3.99,3.54-5.65,6.17v34.52h-4.36Z"/>
    <path class="st2" d="M1548.72,831.6v-61.84h2.39c.4,0,.72.09.97.25.24.17.38.47.41.89l.41,7.07c2.02-2.75,4.38-4.94,7.09-6.56,2.71-1.62,5.74-2.43,9.11-2.43,5.63,0,10.01,1.94,13.13,5.83s4.68,9.72,4.68,17.49c0,3.34-.44,6.45-1.31,9.34-.87,2.89-2.15,5.4-3.83,7.53s-3.76,3.8-6.22,5.03c-2.46,1.22-5.3,1.83-8.52,1.83s-5.82-.57-8.08-1.7c-2.26-1.13-4.22-2.82-5.88-5.05v22.31h-4.36ZM1567.86,772.52c-3.03,0-5.78.79-8.24,2.36-2.46,1.58-4.64,3.77-6.54,6.59v23.96c1.75,2.63,3.68,4.48,5.81,5.55,2.13,1.07,4.55,1.61,7.28,1.61s5.05-.49,7.07-1.47c2.02-.98,3.71-2.36,5.07-4.15s2.39-3.93,3.08-6.43,1.03-5.24,1.03-8.24c0-6.79-1.25-11.79-3.74-14.99s-6.1-4.8-10.81-4.8Z"/>
    <path class="st2" d="M1599.67,815.44v-45.68h2.29c.52,0,.9.11,1.13.32.23.21.36.58.39,1.1l.37,9.64c1.47-3.7,3.43-6.6,5.88-8.7s5.46-3.14,9.04-3.14c1.38,0,2.65.15,3.81.44,1.16.29,2.26.71,3.3,1.26l-.6,3.03c-.09.49-.4.74-.92.74-.18,0-.44-.06-.78-.18-.34-.12-.76-.26-1.26-.41-.5-.15-1.12-.29-1.86-.41-.73-.12-1.58-.18-2.53-.18-3.46,0-6.3,1.07-8.52,3.21-2.22,2.14-4.02,5.23-5.39,9.27v29.7h-4.36Z"/>
    <path class="st2" d="M1655.17,769.03c2.57,0,4.95.44,7.14,1.33,2.19.89,4.09,2.18,5.69,3.88,1.61,1.7,2.86,3.79,3.76,6.27s1.36,5.33,1.36,8.54c0,.67-.1,1.13-.3,1.38-.2.25-.51.37-.94.37h-32.96v.87c0,3.43.4,6.44,1.19,9.04.8,2.6,1.93,4.78,3.4,6.54,1.47,1.76,3.24,3.08,5.32,3.97,2.08.89,4.41,1.33,6.98,1.33,2.3,0,4.28-.25,5.97-.76s3.1-1.07,4.25-1.7c1.15-.63,2.06-1.19,2.73-1.7.67-.51,1.16-.76,1.47-.76.4,0,.7.15.92.46l1.19,1.47c-.74.92-1.71,1.77-2.91,2.57-1.21.8-2.56,1.48-4.04,2.04-1.48.57-3.08,1.02-4.77,1.35-1.7.34-3.4.5-5.12.5-3.12,0-5.97-.54-8.54-1.63-2.57-1.09-4.78-2.67-6.62-4.75s-3.27-4.63-4.27-7.64c-1.01-3.01-1.51-6.46-1.51-10.35,0-3.28.47-6.3,1.4-9.07.93-2.77,2.28-5.16,4.04-7.16,1.76-2,3.92-3.57,6.47-4.71,2.55-1.13,5.45-1.7,8.7-1.7ZM1655.24,772.29c-2.35,0-4.46.37-6.33,1.1-1.86.74-3.48,1.79-4.84,3.17-1.36,1.38-2.46,3.03-3.3,4.96-.84,1.93-1.4,4.09-1.67,6.47h30.07c0-2.45-.34-4.64-1.01-6.59-.67-1.94-1.62-3.59-2.84-4.94-1.22-1.34-2.69-2.38-4.4-3.1-1.71-.72-3.61-1.08-5.68-1.08Z"/>
    <path class="st2" d="M1711.86,775.46c-.21.43-.55.64-1.01.64-.34,0-.77-.19-1.31-.57-.54-.38-1.24-.81-2.11-1.28-.87-.48-1.94-.9-3.21-1.29-1.27-.38-2.82-.57-4.66-.57-1.65,0-3.16.24-4.52.71s-2.52,1.11-3.49,1.9c-.96.79-1.71,1.72-2.25,2.77-.53,1.05-.8,2.16-.8,3.32,0,1.43.37,2.63,1.1,3.57.73.95,1.7,1.75,2.89,2.42,1.19.67,2.55,1.25,4.06,1.74,1.52.49,3.07.98,4.66,1.47,1.59.49,3.14,1.03,4.66,1.63,1.52.6,2.87,1.34,4.06,2.23,1.19.89,2.16,1.97,2.89,3.26.73,1.28,1.1,2.85,1.1,4.68,0,1.99-.36,3.84-1.08,5.55-.72,1.71-1.76,3.2-3.12,4.45-1.36,1.26-3.04,2.25-5.03,2.98s-4.25,1.1-6.8,1.1c-3.21,0-5.98-.51-8.31-1.54-2.33-1.03-4.41-2.36-6.24-4.02l1.06-1.56c.15-.25.32-.43.5-.55.18-.12.44-.18.78-.18.4,0,.89.24,1.47.73.58.49,1.34,1.02,2.27,1.58.93.57,2.1,1.09,3.49,1.58,1.39.49,3.11.73,5.16.73,1.93,0,3.63-.27,5.09-.8,1.47-.54,2.69-1.26,3.67-2.18.98-.92,1.72-2,2.22-3.24.51-1.24.76-2.55.76-3.92,0-1.53-.37-2.8-1.1-3.81-.73-1.01-1.7-1.87-2.89-2.57-1.19-.7-2.55-1.3-4.06-1.79-1.52-.49-3.08-.98-4.68-1.47-1.61-.49-3.17-1.02-4.68-1.61-1.52-.58-2.87-1.32-4.06-2.2-1.19-.89-2.16-1.97-2.89-3.24s-1.1-2.85-1.1-4.75c0-1.62.35-3.18,1.06-4.68.7-1.5,1.71-2.81,3.01-3.95s2.88-2.04,4.75-2.71c1.87-.67,3.96-1.01,6.29-1.01,2.78,0,5.26.4,7.41,1.21,2.16.81,4.14,2.04,5.94,3.7l-.97,1.51Z"/>
    <path class="st2" d="M1757.17,815.44c-.92,0-1.48-.43-1.7-1.28l-.64-5.83c-1.26,1.22-2.5,2.32-3.74,3.3-1.24.98-2.53,1.81-3.88,2.48s-2.8,1.19-4.36,1.54c-1.56.35-3.28.53-5.14.53-1.56,0-3.08-.23-4.55-.69-1.47-.46-2.77-1.16-3.9-2.11-1.13-.95-2.04-2.16-2.73-3.65s-1.03-3.27-1.03-5.35c0-1.93.55-3.72,1.65-5.37,1.1-1.65,2.82-3.09,5.16-4.31s5.35-2.2,9.04-2.94c3.69-.74,8.12-1.16,13.29-1.29v-4.77c0-4.22-.91-7.48-2.73-9.76-1.82-2.28-4.52-3.42-8.1-3.42-2.2,0-4.08.31-5.62.92-1.55.61-2.85,1.29-3.92,2.02-1.07.73-1.94,1.41-2.62,2.02s-1.24.92-1.7.92c-.61,0-1.07-.28-1.38-.83l-.78-1.33c2.39-2.39,4.9-4.19,7.53-5.42,2.63-1.22,5.62-1.83,8.95-1.83,2.45,0,4.59.39,6.43,1.17,1.84.78,3.36,1.9,4.57,3.35,1.21,1.46,2.12,3.22,2.73,5.28.61,2.07.92,4.37.92,6.91v29.75h-1.74ZM1738.81,813.01c1.77,0,3.4-.19,4.89-.57,1.48-.38,2.86-.92,4.13-1.61,1.27-.69,2.46-1.51,3.56-2.45,1.1-.95,2.19-1.97,3.26-3.08v-11.89c-4.35.12-8.09.45-11.22.99-3.14.54-5.72,1.26-7.76,2.18-2.04.92-3.53,2.01-4.5,3.28-.97,1.27-1.45,2.71-1.45,4.34,0,1.53.25,2.85.76,3.97.51,1.12,1.17,2.04,2,2.75.83.72,1.79,1.25,2.89,1.58,1.1.34,2.25.5,3.44.5Z"/>
    <path class="st2" d="M1774.53,815.44v-45.68h2.29c.52,0,.9.11,1.13.32.23.21.36.58.39,1.1l.37,9.64c1.47-3.7,3.43-6.6,5.88-8.7s5.46-3.14,9.04-3.14c1.38,0,2.65.15,3.81.44,1.16.29,2.26.71,3.3,1.26l-.6,3.03c-.09.49-.4.74-.92.74-.18,0-.44-.06-.78-.18-.34-.12-.76-.26-1.26-.41-.5-.15-1.12-.29-1.86-.41-.73-.12-1.58-.18-2.53-.18-3.46,0-6.3,1.07-8.52,3.21-2.22,2.14-4.02,5.23-5.39,9.27v29.7h-4.36Z"/>
    <path class="st2" d="M1820.38,754.02c0,.55-.11,1.06-.34,1.54-.23.48-.53.89-.89,1.26-.37.37-.8.66-1.29.87s-1.01.32-1.56.32-1.07-.11-1.56-.32-.92-.5-1.28-.87c-.37-.37-.66-.79-.87-1.26-.21-.47-.32-.99-.32-1.54s.11-1.08.32-1.58c.21-.5.5-.94.87-1.31.37-.37.79-.66,1.28-.87.49-.21,1.01-.32,1.56-.32s1.07.11,1.56.32c.49.21.92.5,1.29.87.37.37.67.8.89,1.31s.34,1.03.34,1.58ZM1818.46,769.77v45.68h-4.36v-45.68h4.36Z"/>
    <path class="st2" d="M1865.6,815.44c-.92,0-1.48-.43-1.7-1.28l-.64-5.83c-1.26,1.22-2.5,2.32-3.74,3.3-1.24.98-2.53,1.81-3.88,2.48s-2.8,1.19-4.36,1.54c-1.56.35-3.28.53-5.14.53-1.56,0-3.08-.23-4.55-.69-1.47-.46-2.77-1.16-3.9-2.11-1.13-.95-2.04-2.16-2.73-3.65s-1.03-3.27-1.03-5.35c0-1.93.55-3.72,1.65-5.37,1.1-1.65,2.82-3.09,5.16-4.31s5.35-2.2,9.04-2.94c3.69-.74,8.12-1.16,13.29-1.29v-4.77c0-4.22-.91-7.48-2.73-9.76-1.82-2.28-4.52-3.42-8.1-3.42-2.2,0-4.08.31-5.62.92-1.55.61-2.85,1.29-3.92,2.02-1.07.73-1.94,1.41-2.62,2.02s-1.24.92-1.7.92c-.61,0-1.07-.28-1.38-.83l-.78-1.33c2.39-2.39,4.9-4.19,7.53-5.42,2.63-1.22,5.62-1.83,8.95-1.83,2.45,0,4.59.39,6.43,1.17,1.84.78,3.36,1.9,4.57,3.35,1.21,1.46,2.12,3.22,2.73,5.28.61,2.07.92,4.37.92,6.91v29.75h-1.74ZM1847.24,813.01c1.77,0,3.4-.19,4.89-.57,1.48-.38,2.86-.92,4.13-1.61,1.27-.69,2.46-1.51,3.56-2.45,1.1-.95,2.19-1.97,3.26-3.08v-11.89c-4.35.12-8.09.45-11.22.99-3.14.54-5.72,1.26-7.76,2.18-2.04.92-3.53,2.01-4.5,3.28-.97,1.27-1.45,2.71-1.45,4.34,0,1.53.25,2.85.76,3.97.51,1.12,1.17,2.04,2,2.75.83.72,1.79,1.25,2.89,1.58,1.1.34,2.25.5,3.44.5Z"/>
    <path class="st2" d="M1888.6,748.65v66.79h-4.36v-66.79h4.36Z"/>
  </g>
</svg>